<svg aria-hidden="true" style="width:0;height:0;position:absolute;overflow:hidden" xmlns="http://www.w3.org/2000/svg"><defs><symbol id="icon-burger" viewBox="0 0 32 32"><path stroke-linejoin="round" stroke-linecap="round" stroke-width="1.6" d="M28 13.333H4M28 8H4m24 10.667H4M28 24H4"/></symbol><symbol id="icon-search" viewBox="0 0 32 32"><path d="m29.092 31.514-6.85-6.86a11.819 11.819 0 0 1-3.687 2.158l-.083.026c-1.336.494-2.88.78-4.49.78h-.092.005c-3.878 0-7.162-1.346-9.854-4.044C1.347 20.876.001 17.62.001 13.81c0-3.812 1.346-7.066 4.04-9.764C6.733 1.348 10.001 0 13.841 0c3.806 0 7.046 1.348 9.72 4.046 2.676 2.698 4.014 5.952 4.014 9.764 0 1.546-.252 3.04-.754 4.478a13.703 13.703 0 0 1-2.282 4.069l.02-.025 6.958 6.862c.298.261.485.641.485 1.066l-.001.042V30.3c-.006.48-.212.911-.539 1.213l-.001.001c-.293.3-.701.486-1.153.486h-.033.002-.031c-.452 0-.86-.186-1.153-.486zM13.84 24.382c2.908 0 5.386-1.034 7.432-3.1 2.046-2.068 3.07-4.56 3.07-7.472 0-2.914-1.024-5.404-3.07-7.472S16.748 3.24 13.84 3.24c-2.944 0-5.448 1.032-7.512 3.1s-3.096 4.56-3.096 7.472c0 2.912 1.032 5.404 3.096 7.47 2.064 2.068 4.568 3.102 7.512 3.102z"/></symbol><symbol id="icon-youtube" viewBox="0 0 22 22"><path d="M16.665 4.125c-.935-.055-2.86-.11-5.775-.11h-.385c-2.805 0-4.675.055-5.61.165-1.265.11-2.145.44-2.64.88-.44.385-.77 1.1-.88 2.035-.055.605-.11 1.87-.11 3.795v.275c0 1.815.055 3.08.165 3.685.165.88.44 1.54.99 1.925.55.44 1.485.715 2.805.825.935.055 2.86.11 5.775.11h.385c2.805 0 4.675-.055 5.61-.165 1.265-.11 2.145-.44 2.64-.88.44-.385.77-1.1.88-2.035.055-.605.11-1.87.11-3.795v-.275c0-1.815-.055-3.08-.165-3.685-.165-.88-.44-1.54-.99-1.925-.55-.44-1.485-.715-2.805-.825ZM14.52 10.89l-6.05 3.63V7.26l6.05 3.63Z"/></symbol><symbol viewBox="0 0 40 40" fill="none" id="icon-facebook"><path d="M23.031 13.501h1.828V10.41a25.378 25.378 0 0 0-2.664-.136c-2.644 0-4.453 1.613-4.453 4.569v2.547h-2.984v3.461h2.985v8.867h3.577V20.85h2.975l.447-3.46H21.32v-2.208c0-1.02.273-1.682 1.711-1.682Z" fill="#FDFDFF"/><rect x=".5" y=".5" width="39" height="39" rx="5.5" stroke="#FDFDFF" stroke-opacity=".5"/></symbol><symbol id="icon-close" viewBox="0 0 32 32"><path stroke-linejoin="round" stroke-linecap="round" stroke-width="3" d="M24 8 8 24M8 8l16 16"/></symbol><symbol id="icon-star" viewBox="0 0 32 32"><path d="M2.904 22.997a18.892 18.892 0 0 1 20.26 6.194 18.892 18.892 0 0 1 6.194-20.26A18.893 18.893 0 0 1 9.097 2.737a18.892 18.892 0 0 1-6.194 20.26zM.183 24.076C8.459 19.287 11.629 8.919 7.446.321L8.02.016c4.789 8.276 15.157 11.446 23.755 7.263l.305.574c-8.276 4.789-11.446 15.157-7.263 23.755l-.574.305C19.454 23.637 9.086 20.467.488 24.65l-.305-.574z"/><path d="M23.873 26.019c.443 1.571.671 2.862.684 3.798.007.469-.042.812-.121 1.045-.078.229-.165.3-.211.324s-.153.057-.386-.006c-.237-.065-.549-.217-.934-.485-.769-.534-1.711-1.445-2.766-2.691-2.103-2.483-4.562-6.186-6.867-10.52S9.273 9.041 8.391 5.909c-.443-1.571-.671-2.862-.684-3.798-.007-.469.042-.812.121-1.045.078-.229.165-.299.211-.324s.153-.058.386.006c.237.065.549.217.934.484.769.534 1.711 1.445 2.766 2.691 2.103 2.483 4.562 6.186 6.867 10.52s3.999 8.443 4.881 11.575zm.657 5.741c1.897-1.008-.326-8.898-4.965-17.622S9.629-.84 7.732.168c-1.896 1.008.326 8.898 4.965 17.622s9.936 14.978 11.833 13.97z"/><path d="M6.077 23.705c-1.571.443-2.862.671-3.798.684-.469.007-.812-.042-1.045-.121-.229-.078-.299-.165-.324-.211s-.058-.153.006-.386c.065-.237.217-.549.484-.934.534-.769 1.445-1.711 2.691-2.766 2.483-2.103 6.186-4.562 10.52-6.867s8.443-3.999 11.575-4.881c1.571-.443 2.862-.671 3.798-.684.469-.007.812.042 1.045.121.229.078.3.165.324.211s.057.153-.006.386c-.065.237-.217.549-.485.934-.534.769-1.445 1.711-2.691 2.766-2.483 2.103-6.186 4.562-10.52 6.867s-8.443 3.999-11.575 4.881zm-5.741.658c1.008 1.896 8.898-.326 17.622-4.965s14.978-9.936 13.97-11.833-8.898.326-17.622 4.965S-.672 22.466.336 24.363z"/></symbol><symbol id="arrow-to-left" viewBox="0 0 20 32"><path d="m7.16 16 12.532 12.445L16.112 32 0 16 16.112 0l3.58 3.555L7.16 16z"/></symbol><symbol id="arrow-to-down" viewBox="0 0 24 24" fill="none"><path d="m6 9 6 6 6-6" stroke-width="2" stroke-linecap="round" stroke-linejoin="round"/></symbol><symbol id="arrow-to-right" viewBox="0 0 20 32"><path d="M12.84 16 .308 3.555 3.888 0 20 16 3.888 32l-3.58-3.555L12.84 16z"/></symbol><symbol id="trash-icon" viewBox="0 0 18 18" fill="none"><path d="M12 4.5v-.6c0-.84 0-1.26-.164-1.581a1.5 1.5 0 0 0-.655-.656c-.32-.163-.74-.163-1.581-.163H8.4c-.84 0-1.26 0-1.581.163a1.5 1.5 0 0 0-.656.656C6 2.639 6 3.059 6 3.9v.6m1.5 4.125v3.75m3-3.75v3.75M2.25 4.5h13.5m-1.5 0v8.4c0 1.26 0 1.89-.245 2.371-.216.424-.56.768-.984.984-.48.245-1.11.245-2.371.245h-3.3c-1.26 0-1.89 0-2.371-.245a2.25 2.25 0 0 1-.984-.983C3.75 14.79 3.75 14.16 3.75 12.9V4.5" stroke-width="1.5" stroke-linecap="round" stroke-linejoin="round"/></symbol><symbol id="heart" viewBox="0 0 24 22" fill="none"><path d="M20.84 4.61a5.5 5.5 0 0 0-7.78 0L12 5.67l-1.06-1.06a5.501 5.501 0 1 0-7.78 7.78l1.06 1.06L12 21.23l7.78-7.78 1.06-1.06a5.5 5.5 0 0 0 0-7.78Z" stroke-width="2" stroke-linecap="round" stroke-linejoin="round"/></symbol><symbol id="icon-error" viewBox="0 0 37 32"><path fill="#e6e6e6" style="fill:var(--color1,#e6e6e6)" d="M18.824 4.039a.944.944 0 0 0-.896.89h-.118s.035-.814-.896-.857l.005-.129c.073 0 .765-.031.867-.866h.118s-.08.752.92.87v.091zM6.251 17.802a.944.944 0 0 0-.896.89h-.118s.035-.814-.896-.857l.005-.129c.073 0 .765-.031.867-.866h.118s-.08.752.92.87v.091zM37.254 17.302a.944.944 0 0 0-.896.89h-.118s.035-.814-.896-.857l.005-.129c.074 0 .765-.031.867-.866h.118s-.08.752.92.87v.091zM13.973 6.969a.679.679 0 0 0-.645.64h-.084s.025-.585-.645-.616l.003-.093c.053 0 .551-.023.623-.622h.084s-.057.54.661.626v.066h.001zM3.019 13.634a.677.677 0 0 0-.644.64h-.084s.025-.585-.644-.616l.003-.093c.053 0 .551-.023.623-.622h.084s-.057.54.661.626v.066h.001zM12.44 23.968a.679.679 0 0 0-.645.641h-.084s.025-.585-.645-.616l.003-.093c.053 0 .551-.023.623-.622h.084s-.057.541.661.625v.066l.001-.001zM34.964 12.677a.439.439 0 0 0-.417.415h-.055s.016-.379-.417-.4l.003-.06c.035 0 .356-.014.404-.403h.055s-.037.351.428.405v.042zM34.207 24.104a.68.68 0 0 0-.645.64h-.084s.025-.585-.644-.616l.003-.093c.053 0 .551-.023.623-.622h.085s-.057.54.661.625v.066h.001zM13.826.631a.535.535 0 0 0-.507.503h-.067s.019-.46-.506-.485l.003-.073c.041 0 .432-.018.49-.489h.067s-.046.425.519.491v.051h.001zM33.96 2.597a.535.535 0 0 0-.507.503h-.067s.019-.46-.506-.485l.003-.072c.041 0 .432-.018.49-.489h.067s-.046.425.519.491v.051h.001zM10.163 19.317a.311.311 0 0 0-.296.293h-.039s.012-.268-.296-.282l.002-.042c.024 0 .253-.01.286-.286h.039s-.026.248.303.287v.03zM7.166 2.894a.312.312 0 0 0-.296.293h-.039s.012-.268-.296-.282l.002-.042c.024 0 .253-.01.286-.286h.039s-.026.248.303.287v.03zM2.832 23.475a.496.496 0 0 0-.47.466H2.3s.019-.427-.469-.449l.003-.067c.039 0 .401-.016.454-.454h.062s-.042.394.481.455v.048zM33.421 7.692a.312.312 0 0 0-.296.293h-.039s.012-.268-.296-.282l.002-.042c.025 0 .253-.01.286-.286h.039s-.026.248.303.287v.03zM24.915.317a.312.312 0 0 0-.296.293h-.039s.012-.268-.296-.282l.002-.042c.025 0 .253-.01.286-.286h.039s-.026.248.303.287v.03zM17.644 21.694a.312.312 0 0 0-.296.293h-.039s.012-.268-.296-.282l.002-.042c.025 0 .253-.01.286-.286h.039s-.026.248.303.287v.03z"/><path fill="#fdfdff" style="fill:var(--color2,#fdfdff)" d="M35.287 30.541c0 .286-7.899.517-17.644.517s-17.644-.232-17.644-.517 7.899-.517 17.644-.517c9.744 0 17.644.232 17.644.517z"/><path fill="#9cdfdf" style="fill:var(--color3,#9cdfdf)" d="M19.704 9.826s.1 3.674.349 5.581 1.896 15.022 1.896 15.022h4.441V1.966h-3.093v3.209s-2.595.698-2.495 3.768l-1.097.883zM33.076 9.826s-.1 3.674-.349 5.581-1.896 15.022-1.896 15.022H26.39V1.966h3.093v3.209s2.595.698 2.495 3.768l1.097.883z"/><path fill="#fdfdff" style="fill:var(--color2,#fdfdff)" opacity=".5" d="M19.704 9.826s.1 3.674.349 5.581 1.896 15.022 1.896 15.022h4.441V1.966h-3.093v3.209s-2.595.698-2.495 3.768l-1.097.883zM33.076 9.826s-.1 3.674-.349 5.581-1.896 15.022-1.896 15.022H26.39V1.966h3.093v3.209s2.595.698 2.495 3.768l1.097.883z"/><path fill="#fdfdff" style="fill:var(--color2,#fdfdff)" opacity=".3" d="m23.876 5.165-.044-3.199h1.536l-.274 3.199h-1.217zM23.61 9.826h-2.986l2.423 20.604h2.873L23.61 9.826z"/><path fill="#9cdfdf" style="fill:var(--color3,#9cdfdf)" d="M19.704 9.826c4.283-.026 9.089-.026 13.372 0-4.283.026-9.089.026-13.372 0z"/><path fill="#fdfdff" style="fill:var(--color2,#fdfdff)" opacity=".3" d="M22.049 8.92s-.097-1.559.414-2.385 1.412-1.37 1.412-1.37h1.217s-1.796.81-1.526 3.755h-1.518z"/><path fill="#9cdfdf" style="fill:var(--color3,#9cdfdf)" d="M4.914 30.43s.391-1.673.559-2.454.335-1.394.335-1.394h2.403s.584 2.636.759 3.703l.023.145h-4.08z"/><path fill="#fdfdff" style="fill:var(--color2,#fdfdff)" opacity=".7" d="M4.914 30.43s.391-1.673.559-2.454.335-1.394.335-1.394h2.403s.584 2.636.759 3.703l.023.145h-4.08z"/><path fill="#fdfdff" style="fill:var(--color2,#fdfdff)" opacity=".4" d="m5.507 30.43.479-3.473h.74l-.121 3.473H5.507z"/><path fill="#9cdfdf" style="fill:var(--color3,#9cdfdf)" d="M4.718 22.147s.084 1.171.307 2.203.475 2.621.475 2.621h2.934s.391-2.175.53-2.705.252-2.119.252-2.119l-4.498.001z"/><path fill="#fdfdff" style="fill:var(--color2,#fdfdff)" opacity=".7" d="M4.718 22.147s.084 1.171.307 2.203.475 2.621.475 2.621h2.934s.391-2.175.53-2.705.252-2.119.252-2.119l-4.498.001z"/><path fill="#242424" style="fill:var(--color4,#242424)" opacity=".3" d="M8.293 26.975H5.684l-.03.211h2.695l-.057-.211z"/><path fill="#fdfdff" style="fill:var(--color2,#fdfdff)" opacity=".4" d="m5.296 22.147.69 4.809h.74s-.656-4.027-.589-4.809h-.841z"/><path fill="#7e8fdd" style="fill:var(--color5,#7e8fdd)" d="M24.552 27.462c.578-2.185-.833-4.451-3.151-5.062s-4.665.665-5.243 2.85c-.578 2.185.833 4.451 3.151 5.062s4.665-.665 5.244-2.85z"/><path fill="#242424" style="fill:var(--color4,#242424)" opacity=".3" d="M24.552 27.462c.578-2.185-.833-4.451-3.151-5.062s-4.665.665-5.243 2.85c-.578 2.185.833 4.451 3.151 5.062s4.665-.665 5.244-2.85z"/><path fill="#7e8fdd" style="fill:var(--color5,#7e8fdd)" d="M23.453 28.675c1.319-1.836.897-4.392-.943-5.709s-4.401-.895-5.72.941c-1.319 1.836-.897 4.392.943 5.709s4.401.895 5.72-.941z"/><path fill="#7e8fdd" style="fill:var(--color5,#7e8fdd)" d="M20.378 30.204c2.168-.145 3.808-2.016 3.664-4.18s-2.02-3.801-4.188-3.657c-2.168.145-3.808 2.016-3.664 4.18s2.02 3.801 4.188 3.657z"/><path fill="#fdfdff" style="fill:var(--color2,#fdfdff)" opacity=".8" d="M20.378 30.204c2.168-.145 3.808-2.016 3.664-4.18s-2.02-3.801-4.188-3.657c-2.168.145-3.808 2.016-3.664 4.18s2.02 3.801 4.188 3.657z"/><path fill="#7e8fdd" style="fill:var(--color5,#7e8fdd)" d="M16.584 25.769c-.1.666-.008 1.346.266 1.962a.224.224 0 0 0 .297.112l.02-.01 2.353-1.368a.1.1 0 0 0 .043-.136.097.097 0 0 0-.066-.051l-2.637-.693a.224.224 0 0 0-.272.159l-.005.025h.001zM19.668 26.719l-2.354 1.367a.223.223 0 0 0-.066.325c.401.541.949.957 1.578 1.2a.224.224 0 0 0 .297-.15l.695-2.629a.1.1 0 0 0-.149-.113v-.001zM20.103 26.908l-.695 2.629a.222.222 0 0 0 .185.277 3.562 3.562 0 0 0 1.965-.266.222.222 0 0 0 .115-.293l-.012-.023-1.371-2.349a.101.101 0 0 0-.187.025v-.001zM16.937 25.301l2.633.693a.103.103 0 0 0 .125-.072.103.103 0 0 0-.01-.077l-1.371-2.349a.224.224 0 0 0-.305-.08l-.02.013c-.542.401-.96.946-1.202 1.574a.223.223 0 0 0 .128.289l.024.008h-.001zM20.543 26.735l1.371 2.349a.224.224 0 0 0 .325.066c.542-.4.96-.947 1.202-1.575a.221.221 0 0 0-.152-.296l-2.634-.694a.102.102 0 0 0-.114.151l.001-.001zM20.125 25.675l.695-2.629a.223.223 0 0 0-.16-.273l-.024-.005a3.557 3.557 0 0 0-1.966.267.223.223 0 0 0-.114.294l.011.022 1.371 2.349a.102.102 0 0 0 .186-.025h.001zM20.559 25.863l2.353-1.368a.22.22 0 0 0 .067-.324 3.562 3.562 0 0 0-1.578-1.2.223.223 0 0 0-.297.151l-.695 2.629a.102.102 0 0 0 .151.114l-.001-.001zM20.732 26.302l2.633.693a.222.222 0 0 0 .272-.157c.003-.008.004-.018.005-.026.1-.666.008-1.346-.265-1.962a.224.224 0 0 0-.317-.101l-2.354 1.367a.101.101 0 0 0-.035.139c.014.023.036.04.062.047z"/><path fill="#fdfdff" style="fill:var(--color2,#fdfdff)" opacity=".3" d="M16.584 25.769c-.1.666-.008 1.346.266 1.963a.224.224 0 0 0 .297.112l.02-.01 2.353-1.368a.1.1 0 0 0 .043-.136.097.097 0 0 0-.066-.051l-2.637-.693a.223.223 0 0 0-.272.159l-.005.024h.001zM19.668 26.719l-2.354 1.367a.223.223 0 0 0-.066.325c.401.541.949.957 1.578 1.2a.224.224 0 0 0 .297-.15l.695-2.629a.1.1 0 0 0-.149-.113v-.001zM20.103 26.908l-.695 2.629a.222.222 0 0 0 .185.277 3.562 3.562 0 0 0 1.965-.266.222.222 0 0 0 .115-.293c-.003-.008-.008-.015-.012-.023l-1.371-2.349a.101.101 0 0 0-.187.025v-.001zM16.937 25.301l2.633.693a.103.103 0 0 0 .125-.072.103.103 0 0 0-.01-.077l-1.371-2.349a.223.223 0 0 0-.305-.08l-.02.013c-.542.401-.96.946-1.202 1.574a.223.223 0 0 0 .128.289l.024.008h-.001zM20.543 26.735l1.371 2.349a.224.224 0 0 0 .325.066c.542-.4.96-.947 1.202-1.575a.221.221 0 0 0-.127-.288c-.008-.003-.016-.006-.025-.007l-2.634-.694a.103.103 0 0 0-.125.072.102.102 0 0 0 .011.078l.001-.001zM20.125 25.675l.695-2.629a.223.223 0 0 0-.16-.273l-.024-.005a3.557 3.557 0 0 0-1.966.267.223.223 0 0 0-.114.294l.011.022 1.371 2.349a.102.102 0 0 0 .186-.025h.001zM20.559 25.863l2.353-1.368a.22.22 0 0 0 .08-.304l-.013-.02a3.562 3.562 0 0 0-1.578-1.2.223.223 0 0 0-.297.151l-.695 2.628a.102.102 0 0 0 .151.114l-.001-.001zM20.732 26.302l2.633.693a.222.222 0 0 0 .272-.157c.003-.008.004-.018.005-.026.1-.666.008-1.346-.265-1.962a.224.224 0 0 0-.317-.101l-2.354 1.367a.101.101 0 0 0 .027.185z"/><path fill="#7e8fdd" style="fill:var(--color5,#7e8fdd)" d="M18.145 26.48c.112-.014.209.017.216.071s-.078.109-.191.123c-.112.014-.209-.017-.216-.071s.078-.11.191-.123z"/><path fill="#fdfdff" style="fill:var(--color2,#fdfdff)" opacity=".6" d="M18.145 26.48c.112-.014.209.017.216.071s-.078.109-.191.123c-.112.014-.209-.017-.216-.071s.078-.11.191-.123z"/><path fill="#7e8fdd" style="fill:var(--color5,#7e8fdd)" d="M18.824 27.57c.084-.075.182-.103.218-.063s-.003.134-.088.209c-.085.074-.182.104-.219.063s.006-.131.089-.209z"/><path fill="#fdfdff" style="fill:var(--color2,#fdfdff)" opacity=".6" d="M18.824 27.57c.084-.075.182-.103.218-.063s-.003.134-.088.209c-.085.074-.182.104-.219.063s.006-.131.089-.209z"/><path fill="#7e8fdd" style="fill:var(--color5,#7e8fdd)" d="M18.781 28.475c.067-.091.155-.14.199-.108s.025.131-.041.223-.155.14-.199.108-.026-.131.041-.223z"/><path fill="#fdfdff" style="fill:var(--color2,#fdfdff)" opacity=".6" d="M18.781 28.475c.067-.091.155-.14.199-.108s.025.131-.041.223-.155.14-.199.108-.026-.131.041-.223z"/><path fill="#7e8fdd" style="fill:var(--color5,#7e8fdd)" d="M21.276 24.023c.061-.096.146-.15.192-.122s.035.129-.025.226c-.06.097-.146.15-.192.122s-.033-.128.025-.226z"/><path fill="#fdfdff" style="fill:var(--color2,#fdfdff)" opacity=".6" d="M21.276 24.023c.061-.096.146-.15.192-.122s.035.129-.025.226c-.06.097-.146.15-.192.122s-.033-.128.025-.226z"/><path fill="#7e8fdd" style="fill:var(--color5,#7e8fdd)" d="M21.251 24.907c.066-.092.155-.14.199-.109s.025.131-.041.223-.155.14-.199.109-.026-.131.041-.223z"/><path fill="#fdfdff" style="fill:var(--color2,#fdfdff)" opacity=".6" d="M21.251 24.907c.066-.092.155-.14.199-.109s.025.131-.041.223-.155.14-.199.109-.026-.131.041-.223zM22.422 26.111c.112-.018.209.011.218.064s-.075.11-.188.129c-.111.019-.209-.011-.218-.064s.074-.111.188-.129zM18.157 24.639c-.072-.088-.095-.186-.053-.22s.134.01.205.097c.072.088.096.186.053.22s-.133-.009-.205-.097zM18.426 25.375c-.113-.006-.202-.056-.199-.109s.098-.092.21-.086c.113.006.202.056.199.11s-.097.093-.21.086v-.001zM19.483 23.987c-.012-.112.024-.207.077-.213.053-.005.106.082.117.194s-.024.207-.077.213c-.053.005-.106-.081-.117-.194z"/><path fill="#7e8fdd" style="fill:var(--color5,#7e8fdd)" d="M20.639 28.754c-.012-.111.022-.207.074-.213s.107.081.119.194c.013.112-.022.207-.074.213s-.106-.081-.119-.194z"/><path fill="#fdfdff" style="fill:var(--color2,#fdfdff)" opacity=".6" d="M20.639 28.754c-.012-.111.022-.207.074-.213s.107.081.119.194c.013.112-.022.207-.074.213s-.106-.081-.119-.194z"/><path fill="#7e8fdd" style="fill:var(--color5,#7e8fdd)" d="M21.516 27.356c-.095-.063-.146-.15-.117-.195s.131-.031.226.031.146.149.117.195-.132.03-.226-.031z"/><path fill="#fdfdff" style="fill:var(--color2,#fdfdff)" opacity=".6" d="M21.516 27.356c-.095-.063-.146-.15-.117-.195s.131-.031.226.031.146.149.117.195-.132.03-.226-.031z"/><path fill="#7e8fdd" style="fill:var(--color5,#7e8fdd)" d="M22.297 10.996H6.42s.091 4.781 5.064 5.828c0 0-.33 3.322 2.464 3.659v7.954c-2.952.189-4.185 1.994-4.185 1.994h9.555s-1.395-1.806-4.366-1.994v-7.979c2.599-.456 2.282-3.633 2.282-3.633 4.973-1.047 5.064-5.828 5.064-5.828v-.001z"/><path fill="#fdfdff" style="fill:var(--color2,#fdfdff)" opacity=".7" d="M22.297 10.996H6.42s.091 4.781 5.064 5.828c0 0-.33 3.322 2.464 3.659v7.954c-2.952.189-4.185 1.994-4.185 1.994h9.555s-1.395-1.806-4.366-1.994v-7.979c2.599-.456 2.282-3.633 2.282-3.633 4.973-1.047 5.064-5.828 5.064-5.828v-.001z"/><path fill="#fdfdff" style="fill:var(--color2,#fdfdff)" opacity=".4" d="M21.459 10.996H7.662s.145 4.25 4.467 5.164c0 0-.473 3.613 2.35 3.613h.209c2.259-.398 2.004-3.708 2.004-3.708 4.562-1.133 4.768-5.07 4.768-5.07h-.001z"/><path fill="#7e8fdd" style="fill:var(--color5,#7e8fdd)" opacity=".9" d="M22.297 10.996c0 .305-3.554.553-7.938.553s-7.938-.248-7.938-.553 3.554-.553 7.938-.553 7.938.248 7.938.553z"/><path fill="#fdfdff" style="fill:var(--color2,#fdfdff)" opacity=".7" d="M22.297 10.996c0 .305-3.554.553-7.938.553s-7.938-.248-7.938-.553 3.554-.553 7.938-.553 7.938.248 7.938.553z"/><path fill="#7e8fdd" style="fill:var(--color5,#7e8fdd)" opacity=".9" d="M20.332 13.819c-.678 1.098-1.93 1.822-3.641 2.247 0 0 .255 3.311-2.004 3.708h-.209c-2.823 0-2.35-3.613-2.35-3.613-1.621-.343-2.869-1.079-3.565-2.407 0 0 2.254-.159 4.233.156s3.262.561 5.287.18a15.851 15.851 0 0 1 2.249-.271l.001.001z"/><path fill="#242424" style="fill:var(--color4,#242424)" opacity=".3" d="M8.563 13.753s2.875 1.315 6.949 1.064 4.82-.998 4.82-.998-1.227.028-2.248.271c-1.021.243-2.619.191-3.324.11-.686-.078-3.651-.683-6.197-.446v-.001z"/><path fill="#7e8fdd" style="fill:var(--color5,#7e8fdd)" d="M11.309 15.546 2.926 4.518l.417-.344 8.441 11.073s.007.405-.476.299v-.001z"/><path fill="#242424" style="fill:var(--color4,#242424)" opacity=".3" d="M11.309 15.546 2.926 4.518l.417-.344 8.441 11.073s.007.405-.476.299v-.001z"/><path fill="#7e8fdd" style="fill:var(--color5,#7e8fdd)" d="M10.565 8.279a4.063 4.063 0 0 0-.182-.3c-1.27-1.902-3.758-2.473-5.557-1.276s-2.227 3.71-.957 5.61c.065.099.135.192.208.284l6.489-4.319z"/><path fill="#242424" style="fill:var(--color4,#242424)" opacity=".3" d="M10.565 8.279a4.063 4.063 0 0 0-.182-.3c-1.27-1.902-3.758-2.473-5.557-1.276s-2.227 3.71-.957 5.61c.065.099.135.192.208.284l6.489-4.319z"/><path fill="#7e8fdd" style="fill:var(--color5,#7e8fdd)" d="m10.575 8.273-.064-.102c-1.199-1.796-3.63-2.28-5.429-1.083s-2.285 3.623-1.085 5.418l.069.099 6.509-4.332z"/><path fill="#fdfdff" style="fill:var(--color2,#fdfdff)" opacity=".8" d="M10.439 8.358a3.762 3.762 0 0 0-5.271-1.135 3.746 3.746 0 0 0-1.042 5.201c.022.032.044.062.063.092l6.25-4.157z"/><path fill="#7e8fdd" style="fill:var(--color5,#7e8fdd)" d="m7.656 9.911 2.16-1.443a.214.214 0 0 0 .056-.298c-.003-.006-.008-.011-.012-.016a3.396 3.396 0 0 0-1.574-1.052.215.215 0 0 0-.268.138l-.006.023-.509 2.545a.098.098 0 0 0 .075.117c.027.006.056 0 .079-.016v.002zM7.232 9.756l.51-2.546a.212.212 0 0 0-.19-.253 3.4 3.4 0 0 0-1.858.368.211.211 0 0 0-.08.307L7.06 9.794a.099.099 0 0 0 .173-.036zM6.668 10.37l-2.551-.51a.214.214 0 0 0-.255.192 3.389 3.389 0 0 0 .368 1.855.213.213 0 0 0 .287.092c.007-.003.014-.008.02-.012l2.164-1.441a.098.098 0 0 0-.035-.174l.001-.001zM6.822 9.945l-1.444-2.16a.215.215 0 0 0-.298-.056c-.006.003-.011.008-.016.012A3.384 3.384 0 0 0 4.01 9.312a.214.214 0 0 0 .139.268c.007.003.014.004.022.006l2.55.508a.097.097 0 0 0 .113-.081.098.098 0 0 0-.014-.069h.002z"/><path fill="#fdfdff" style="fill:var(--color2,#fdfdff)" opacity=".3" d="m7.656 9.911 2.16-1.443a.214.214 0 0 0 .056-.298c-.003-.006-.008-.011-.012-.016a3.396 3.396 0 0 0-1.574-1.052.215.215 0 0 0-.268.138l-.006.023-.509 2.545a.098.098 0 0 0 .075.117c.027.006.056 0 .079-.016v.002zM7.232 9.756l.51-2.546a.212.212 0 0 0-.19-.253 3.4 3.4 0 0 0-1.858.368.211.211 0 0 0-.08.307L7.06 9.794a.099.099 0 0 0 .173-.036zM6.668 10.37l-2.551-.51a.214.214 0 0 0-.255.192 3.389 3.389 0 0 0 .368 1.855.213.213 0 0 0 .287.092c.007-.003.014-.008.02-.012l2.164-1.441a.098.098 0 0 0-.035-.174l.001-.001zM6.822 9.945l-1.444-2.16a.215.215 0 0 0-.298-.056c-.006.003-.011.008-.016.012A3.384 3.384 0 0 0 4.01 9.312a.214.214 0 0 0 .139.268c.007.003.014.004.022.006l2.55.508a.097.097 0 0 0 .113-.081.098.098 0 0 0-.014-.069h.002z"/><path fill="#7e8fdd" style="fill:var(--color5,#7e8fdd)" d="M4.987 11.231c-.104.031-.199.016-.214-.033s.057-.116.16-.146c.104-.031.2-.015.215.035s-.058.116-.16.145l-.001-.001z"/><path fill="#fdfdff" style="fill:var(--color2,#fdfdff)" opacity=".6" d="M4.987 11.231c-.104.031-.199.016-.214-.033s.057-.116.16-.146c.104-.031.2-.015.215.035s-.058.116-.16.145l-.001-.001z"/><path fill="#7e8fdd" style="fill:var(--color5,#7e8fdd)" d="M5.566 10.615c-.106.024-.201.003-.211-.048s.062-.112.169-.132c.107-.02.201-.003.212.049s-.064.109-.17.132v-.001z"/><path fill="#fdfdff" style="fill:var(--color2,#fdfdff)" opacity=".6" d="M5.566 10.615c-.106.024-.201.003-.211-.048s.062-.112.169-.132c.107-.02.201-.003.212.049s-.064.109-.17.132v-.001z"/><path fill="#7e8fdd" style="fill:var(--color5,#7e8fdd)" d="M8.444 8.252c-.063.087-.149.135-.191.105s-.024-.126.037-.213.148-.135.19-.105c.042.03.025.126-.036.214z"/><path fill="#fdfdff" style="fill:var(--color2,#fdfdff)" opacity=".6" d="M8.444 8.252c-.063.087-.149.135-.191.105s-.024-.126.037-.213.148-.135.19-.105c.042.03.025.126-.036.214zM5.611 9.095c.08.073.118.163.083.201s-.128.011-.208-.061c-.08-.072-.117-.162-.083-.201s.128-.011.208.061z"/><path fill="#7e8fdd" style="fill:var(--color5,#7e8fdd)" d="M5.289 6.007a.841.841 0 1 1-1.674.166.841.841 0 0 1 1.674-.166z"/><path fill="#fdfdff" style="fill:var(--color2,#fdfdff)" opacity=".3" d="M3.803 5.766s-.202.328-.024.649.438.384.438.384.005-.325-.02-.639-.394-.395-.394-.395h.001z"/><path fill="#fdfdff" style="fill:var(--color2,#fdfdff)" opacity=".27" d="M21.432 11.282c-4.462.361-9.048.348-13.743.002 0 0 .012 2.129 1.872 3.71.622.529 1.492.937 2.574 1.165 0 0-.473 3.613 2.35 3.613h.209c2.259-.398 2.004-3.708 2.004-3.708 1.011-.251 1.802-.53 2.431-.983 2.207-1.592 2.303-3.8 2.303-3.8z"/><path fill="#9cdfdf" style="fill:var(--color3,#9cdfdf)" d="M22.297 10.996c-.005.044-.052.064-.087.082-.271.109-.568.137-.855.18-.993.124-1.994.175-2.994.22-3.663.12-7.35.156-10.999-.22-.287-.043-.584-.072-.855-.18-.035-.019-.081-.039-.087-.082.005.044.052.063.087.082.271.108.568.136.855.178 3.651.366 7.335.315 10.999.212.999-.042 2-.091 2.994-.212.287-.042.584-.07.855-.178.035-.019.081-.038.087-.082z"/><path fill="#242424" style="fill:var(--color4,#242424)" opacity=".3" d="M13.948 20.482v.21s.547.105 1.003-.032v-.203c-.371.091-.593.087-.981.03z"/><path fill="#9cdfdf" style="fill:var(--color3,#9cdfdf)" d="M12.941 28.593a6.196 6.196 0 0 1 2.837-.071 7.025 7.025 0 0 0-2.837.071z"/><path fill="#fdfdff" style="fill:var(--color2,#fdfdff)" opacity=".3" d="M14.359 17.242a.228.228 0 1 0 0-.455.228.228 0 0 0 0 .455zM13.72 17.766a.174.174 0 1 1-.348 0 .174.174 0 0 1 .348 0zM15.881 18.303c.062 0 .112-.05.112-.111a.112.112 0 0 0-.223 0c0 .061.05.111.111.111zM13.398 16.855a.11.11 0 1 0 0-.222.11.11 0 1 0 0 .222zM15.424 18.719a.281.281 0 1 1-.562 0 .281.281 0 0 1 .562 0z"/></symbol><svg id="icon-instagram" viewBox="0 0 40 40" fill="none"><path d="M24.99 13.893a1.12 1.12 0 1 0 0 2.24 1.12 1.12 0 0 0 0-2.24Zm4.293 2.26a7.08 7.08 0 0 0-.43-2.269 4.61 4.61 0 0 0-1.083-1.652 4.386 4.386 0 0 0-1.651-1.073 6.813 6.813 0 0 0-2.268-.439c-.99-.056-1.307-.056-3.846-.056-2.538 0-2.856 0-3.845.056a6.813 6.813 0 0 0-2.268.439 4.461 4.461 0 0 0-1.652 1.073 4.386 4.386 0 0 0-1.074 1.652 6.813 6.813 0 0 0-.438 2.268c-.056.99-.056 1.307-.056 3.845 0 2.54 0 2.856.056 3.846.016.775.164 1.542.438 2.268.228.625.595 1.19 1.074 1.652a4.461 4.461 0 0 0 1.652 1.073 6.813 6.813 0 0 0 2.268.439c.99.056 1.306.056 3.845.056s2.856 0 3.846-.056a6.813 6.813 0 0 0 2.268-.439 4.386 4.386 0 0 0 1.651-1.073 4.526 4.526 0 0 0 1.083-1.652 7.08 7.08 0 0 0 .43-2.268c0-.99.055-1.307.055-3.846 0-2.538 0-2.856-.056-3.845Zm-1.68 7.578a5.237 5.237 0 0 1-.318 1.736 2.857 2.857 0 0 1-.7 1.073 2.979 2.979 0 0 1-1.073.7 5.238 5.238 0 0 1-1.736.317c-.933.047-1.279.056-3.733.056-2.455 0-2.8 0-3.734-.056a5.349 5.349 0 0 1-1.81-.28 3.052 3.052 0 0 1-1.027-.7 2.8 2.8 0 0 1-.69-1.073 5.171 5.171 0 0 1-.374-1.773c0-.934-.056-1.279-.056-3.734 0-2.454 0-2.8.056-3.733a5.172 5.172 0 0 1 .327-1.773c.164-.394.416-.745.737-1.027a2.93 2.93 0 0 1 1.027-.747 5.348 5.348 0 0 1 1.773-.317c.933 0 1.279-.056 3.733-.056 2.455 0 2.8 0 3.733.056.593.007 1.18.114 1.736.317.425.158.805.414 1.111.747.306.287.545.637.7 1.027.208.568.315 1.168.317 1.773.047.933.056 1.279.056 3.733 0 2.455-.009 2.8-.056 3.734Zm-7.598-8.522a4.787 4.787 0 1 0 4.797 4.788 4.777 4.777 0 0 0-4.797-4.788Zm0 7.896a3.108 3.108 0 1 1 0-6.216 3.108 3.108 0 0 1 0 6.216Z" fill="#FDFDFF"/><rect x=".5" y=".5" width="39" height="39" rx="5.5" stroke="#FDFDFF" stroke-opacity=".5"/></svg><svg id="background" width="153" height="761" viewBox="0 0 153 761" fill="none"><path d="M-277.103-181.909c-78.463 70.625-242.003 218.9-268.456 246.998-54.738 87.049-170.028 273.914-193.285 324.98-29.07 63.832 247.847 362.85 260.812 369.891 12.965 7.042 463.257-167.742 480.936-189.989 14.143-17.798 47.572-328.034 62.519-480.927 21.912-71.26 69.742-221.156 85.77-250.669 20.036-36.892-188.71-44.1-226.163-6.052-29.962 30.439-115.849 161.79-155.047 223.662l-47.086-237.894Z" fill="#9CDFDF" fill-opacity=".8"/></svg></defs></svg>