<svg xmlns="http://www.w3.org/2000/svg" aria-hidden="true" style="position:absolute;width:0;height:0;overflow:hidden">
  <defs>
    <symbol id="icon-coc-cup" viewBox="0 0 32 32">
      <path d="M29.748 8.938c.267-.282.342-.682.193-1.038s-.49-.578-.875-.578h-7.238l1.098-2.358c1.052.326 2.18-.089 2.625-1.054.445-.949.045-2.092-.875-2.685l.223-.504a.315.315 0 0 0-.146-.415l-.002-.001a.315.315 0 0 0-.415.146l-.001.002-.237.504c-1.052-.326-2.18.089-2.625 1.052-.445.949-.045 2.091.875 2.685L21.116 7.32H2.933c-.385 0-.726.223-.875.578s-.075.757.192 1.038l12.874 13.453v11.213H11.55a.83.83 0 1 0 0 1.662h8.899a.83.83 0 1 0 0-1.662h-3.574V22.389L29.749 8.936zm-9.521.296-1.232 2.64H9.087l6.912 7.223 6.912-7.223h-3.218l1.232-2.64h5.903L16.001 20.55 5.174 9.234h15.055z"/>
    </symbol>
  </defs>
</svg>
