<svg aria-hidden="true" style="position: absolute; width: 0; height: 0; overflow: hidden;" version="1.1"
    xmlns="http://www.w3.org/2000/svg" xmlns:xlink="http://www.w3.org/1999/xlink">
    <defs>
        <symbol id="icon-burger" viewBox="0 0 32 32">
            <path stroke-linejoin="round" stroke-linecap="round" stroke-miterlimit="4" stroke-width="1.6"
                d="M28 13.333h-24M28 8h-24M28 18.667h-24M28 24h-24"></path>
        </symbol>
        <symbol id="icon-search" viewBox="0 0 32 32">
            <path
                d="M29.092 31.514l-6.85-6.86c-1.066 0.92-2.318 1.662-3.687 2.158l-0.083 0.026c-1.336 0.494-2.88 0.78-4.49 0.78-0.031 0-0.062-0-0.092-0l0.005 0c-3.878 0-7.162-1.346-9.854-4.044-2.694-2.698-4.040-5.954-4.040-9.764 0-3.812 1.346-7.066 4.040-9.764 2.692-2.698 5.96-4.046 9.8-4.046 3.806 0 7.046 1.348 9.72 4.046 2.676 2.698 4.014 5.952 4.014 9.764 0 1.546-0.252 3.040-0.754 4.478-0.557 1.551-1.323 2.891-2.282 4.069l0.020-0.025 6.958 6.862c0.298 0.261 0.485 0.641 0.485 1.066 0 0.014-0 0.028-0.001 0.042l0-0.002c-0.006 0.48-0.212 0.911-0.539 1.213l-0.001 0.001c-0.293 0.3-0.701 0.486-1.153 0.486-0.011 0-0.022-0-0.033-0l0.002 0c-0.009 0-0.020 0-0.031 0-0.452 0-0.86-0.186-1.153-0.486l-0-0zM13.84 24.382c2.908 0 5.386-1.034 7.432-3.1 2.046-2.068 3.070-4.56 3.070-7.472 0-2.914-1.024-5.404-3.070-7.472s-4.524-3.098-7.432-3.098c-2.944 0-5.448 1.032-7.512 3.1s-3.096 4.56-3.096 7.472c0 2.912 1.032 5.404 3.096 7.47 2.064 2.068 4.568 3.102 7.512 3.102z">
            </path>
        </symbol>

        <!-- з ютубом не вийшло викачати з бордером, лише чистий -->
        <symbol id="icon-youtube" viewBox="0 0 22 22">
            <path
                d="M16.665 4.12489C15.73 4.06989 13.805 4.01489 10.89 4.01489H10.505C7.70001 4.01489 5.83004 4.06989 4.89504 4.17989C3.63004 4.28989 2.75001 4.61989 2.25501 5.05989C1.81501 5.44489 1.48502 6.15989 1.37502 7.09489C1.32002 7.69989 1.26501 8.96489 1.26501 10.8899V11.1649C1.26501 12.9799 1.32001 14.2449 1.43001 14.8499C1.59501 15.7299 1.87003 16.3899 2.42003 16.7749C2.97003 17.2149 3.90502 17.4899 5.22502 17.5999C6.16002 17.6549 8.08502 17.7099 11 17.7099H11.385C14.19 17.7099 16.06 17.6549 16.995 17.5449C18.26 17.4349 19.14 17.1049 19.635 16.6649C20.075 16.2799 20.405 15.5649 20.515 14.6299C20.57 14.0249 20.625 12.7599 20.625 10.8349V10.5599C20.625 8.74489 20.57 7.47989 20.46 6.87489C20.295 5.99489 20.02 5.33489 19.47 4.94989C18.92 4.50989 17.985 4.23489 16.665 4.12489ZM14.52 10.8899L8.47004 14.5199V7.25989L14.52 10.8899Z" />
        </symbol>

        <svg id="icon-instagram" viewBox="0 0 40 40" fill="none">
            <path
                d="M24.9892 13.8934C24.7677 13.8934 24.5512 13.9591 24.367 14.0822C24.1828 14.2052 24.0392 14.3801 23.9545 14.5848C23.8697 14.7894 23.8475 15.0146 23.8907 15.2319C23.9339 15.4492 24.0406 15.6487 24.1973 15.8054C24.3539 15.962 24.5535 16.0687 24.7707 16.1119C24.988 16.1551 25.2132 16.1329 25.4178 16.0481C25.6225 15.9634 25.7974 15.8198 25.9205 15.6356C26.0435 15.4515 26.1092 15.2349 26.1092 15.0134C26.1092 14.7164 25.9912 14.4315 25.7812 14.2214C25.5711 14.0114 25.2863 13.8934 24.9892 13.8934ZM29.2825 16.1521C29.2644 15.3777 29.1194 14.6115 28.8532 13.8841C28.6159 13.2617 28.2465 12.6981 27.7705 12.2321C27.3084 11.7537 26.7435 11.3866 26.1185 11.1587C25.393 10.8845 24.626 10.7361 23.8505 10.7201C22.8612 10.6641 22.5439 10.6641 20.0052 10.6641C17.4665 10.6641 17.1492 10.6641 16.1599 10.7201C15.3844 10.7361 14.6174 10.8845 13.8919 11.1587C13.2681 11.3889 12.7037 11.7557 12.2399 12.2321C11.7615 12.6942 11.3944 13.2591 11.1665 13.8841C10.8923 14.6096 10.7439 15.3766 10.7279 16.1521C10.6719 17.1414 10.6719 17.4587 10.6719 19.9974C10.6719 22.5361 10.6719 22.8534 10.7279 23.8427C10.7439 24.6182 10.8923 25.3852 11.1665 26.1107C11.3944 26.7357 11.7615 27.3006 12.2399 27.7627C12.7037 28.2391 13.2681 28.6059 13.8919 28.8361C14.6174 29.1103 15.3844 29.2587 16.1599 29.2747C17.1492 29.3307 17.4665 29.3307 20.0052 29.3307C22.5439 29.3307 22.8612 29.3307 23.8505 29.2747C24.626 29.2587 25.393 29.1103 26.1185 28.8361C26.7435 28.6082 27.3084 28.2411 27.7705 27.7627C28.2486 27.2985 28.6183 26.7344 28.8532 26.1107C29.1194 25.3833 29.2644 24.6171 29.2825 23.8427C29.2825 22.8534 29.3385 22.5361 29.3385 19.9974C29.3385 17.4587 29.3385 17.1414 29.2825 16.1521ZM27.6025 23.7307C27.5957 24.3232 27.4884 24.9102 27.2852 25.4667C27.1362 25.8729 26.8968 26.2399 26.5852 26.5401C26.2825 26.8485 25.9162 27.0874 25.5119 27.2401C24.9553 27.4433 24.3683 27.5506 23.7759 27.5574C22.8425 27.6041 22.4972 27.6134 20.0425 27.6134C17.5879 27.6134 17.2425 27.6134 16.3092 27.5574C15.694 27.5689 15.0815 27.4742 14.4985 27.2774C14.1119 27.1169 13.7625 26.8787 13.4719 26.5774C13.1621 26.2776 12.9257 25.9102 12.7812 25.5041C12.5533 24.9395 12.427 24.3392 12.4079 23.7307C12.4079 22.7974 12.3519 22.4521 12.3519 19.9974C12.3519 17.5427 12.3519 17.1974 12.4079 16.2641C12.4121 15.6584 12.5226 15.0581 12.7345 14.4907C12.8989 14.0968 13.1511 13.7456 13.4719 13.4641C13.7554 13.1432 14.1059 12.8883 14.4985 12.7174C15.0675 12.5121 15.6671 12.4048 16.2719 12.4001C17.2052 12.4001 17.5505 12.3441 20.0052 12.3441C22.4599 12.3441 22.8052 12.3441 23.7385 12.4001C24.331 12.4069 24.918 12.5142 25.4745 12.7174C25.8987 12.8748 26.2794 13.1307 26.5852 13.4641C26.8911 13.7508 27.1301 14.1013 27.2852 14.4907C27.4926 15.0591 27.6 15.6591 27.6025 16.2641C27.6492 17.1974 27.6585 17.5427 27.6585 19.9974C27.6585 22.4521 27.6492 22.7974 27.6025 23.7307ZM20.0052 15.2094C19.0586 15.2112 18.1338 15.4936 17.3477 16.0209C16.5615 16.5481 15.9493 17.2965 15.5883 18.1716C15.2274 19.0466 15.1339 20.009 15.3197 20.9372C15.5055 21.8654 15.9622 22.7176 16.6322 23.3863C17.3022 24.055 18.1554 24.5101 19.0839 24.6941C20.0124 24.8781 20.9746 24.7827 21.849 24.42C22.7233 24.0574 23.4706 23.4437 23.9963 22.6565C24.522 21.8693 24.8025 20.944 24.8025 19.9974C24.8038 19.3675 24.6805 18.7436 24.4397 18.1615C24.1989 17.5794 23.8455 17.0507 23.3996 16.6057C22.9538 16.1607 22.4244 15.8083 21.8418 15.5687C21.2593 15.329 20.6351 15.2069 20.0052 15.2094ZM20.0052 23.1054C19.3905 23.1054 18.7896 22.9231 18.2785 22.5816C17.7674 22.2401 17.369 21.7547 17.1338 21.1868C16.8986 20.6189 16.837 19.9939 16.9569 19.3911C17.0769 18.7882 17.3729 18.2344 17.8075 17.7997C18.2422 17.365 18.796 17.069 19.3989 16.9491C20.0018 16.8292 20.6267 16.8907 21.1946 17.126C21.7625 17.3612 22.2479 17.7596 22.5894 18.2707C22.9309 18.7818 23.1132 19.3827 23.1132 19.9974C23.1132 20.4055 23.0328 20.8097 22.8766 21.1868C22.7204 21.5639 22.4915 21.9065 22.2029 22.1951C21.9143 22.4837 21.5717 22.7126 21.1946 22.8688C20.8175 23.025 20.4134 23.1054 20.0052 23.1054Z"
                fill="#FDFDFF" />
            <rect x="0.5" y="0.5" width="39" height="39" rx="5.5" stroke="#FDFDFF" stroke-opacity="0.5" />
        </svg>
        <symbol viewBox="0 0 40 40" fill="none" id="icon-facebook">
            <path
                d="M23.0314 13.5012H24.8592V10.4096C23.9742 10.3176 23.085 10.2721 22.1953 10.2735C19.5509 10.2735 17.7425 11.8874 17.7425 14.8429V17.3901H14.7578V20.8512H17.7425V29.7179H21.3203V20.8512H24.2953L24.7425 17.3901H21.3203V15.1832C21.3203 14.1624 21.5925 13.5012 23.0314 13.5012Z"
                fill="#FDFDFF" />
            <rect x="0.5" y="0.5" width="39" height="39" rx="5.5" stroke="#FDFDFF" stroke-opacity="0.5" />
        </symbol>
        <symbol id="icon-close" viewBox="0 0 32 32">
            <path stroke-linejoin="round" stroke-linecap="round" stroke-miterlimit="4" stroke-width="3"
                d="M24 8l-16 16"></path>
            <path stroke-linejoin="round" stroke-linecap="round" stroke-miterlimit="4" stroke-width="3" d="M8 8l16 16">
            </path>
        </symbol>
        <symbol id="icon-star" viewBox="0 0 32 32">
            <path
                d="M2.904 22.997c7.367-2.278 15.426 0.186 20.26 6.194-2.278-7.367 0.186-15.426 6.194-20.26-7.367 2.278-15.427-0.186-20.261-6.194 2.278 7.367-0.186 15.426-6.194 20.26zM0.183 24.076c8.276-4.789 11.446-15.157 7.263-23.755l0.574-0.305c4.789 8.276 15.157 11.446 23.755 7.263l0.305 0.574c-8.276 4.789-11.446 15.157-7.263 23.755l-0.574 0.305c-4.789-8.276-15.157-11.446-23.755-7.263l-0.305-0.574z">
            </path>
            <path
                d="M23.873 26.019c0.443 1.571 0.671 2.862 0.684 3.798 0.007 0.469-0.042 0.812-0.121 1.045-0.078 0.229-0.165 0.3-0.211 0.324s-0.153 0.057-0.386-0.006c-0.237-0.065-0.549-0.217-0.934-0.485-0.769-0.534-1.711-1.445-2.766-2.691-2.103-2.483-4.562-6.186-6.867-10.52s-3.999-8.443-4.881-11.575c-0.443-1.571-0.671-2.862-0.684-3.798-0.007-0.469 0.042-0.812 0.121-1.045 0.078-0.229 0.165-0.299 0.211-0.324s0.153-0.058 0.386 0.006c0.237 0.065 0.549 0.217 0.934 0.484 0.769 0.534 1.711 1.445 2.766 2.691 2.103 2.483 4.562 6.186 6.867 10.52s3.999 8.443 4.881 11.575zM24.53 31.76c1.897-1.008-0.326-8.898-4.965-17.622s-9.936-14.978-11.833-13.97c-1.896 1.008 0.326 8.898 4.965 17.622s9.936 14.978 11.833 13.97z">
            </path>
            <path
                d="M6.077 23.705c-1.571 0.443-2.862 0.671-3.798 0.684-0.469 0.007-0.812-0.042-1.045-0.121-0.229-0.078-0.299-0.165-0.324-0.211s-0.058-0.153 0.006-0.386c0.065-0.237 0.217-0.549 0.484-0.934 0.534-0.769 1.445-1.711 2.691-2.766 2.483-2.103 6.186-4.562 10.52-6.867s8.443-3.999 11.575-4.881c1.571-0.443 2.862-0.671 3.798-0.684 0.469-0.007 0.812 0.042 1.045 0.121 0.229 0.078 0.3 0.165 0.324 0.211s0.057 0.153-0.006 0.386c-0.065 0.237-0.217 0.549-0.485 0.934-0.534 0.769-1.445 1.711-2.691 2.766-2.483 2.103-6.186 4.562-10.52 6.867s-8.443 3.999-11.575 4.881zM0.336 24.363c1.008 1.896 8.898-0.326 17.622-4.965s14.978-9.936 13.97-11.833-8.898 0.326-17.622 4.965c-8.724 4.639-14.978 9.936-13.97 11.833z">
            </path>
        </symbol>
        <symbol id="arrow-to-left" viewBox="0 0 20 32">
            <path d="M7.16 16l12.532 12.445-3.58 3.555-16.112-16 16.112-16 3.58 3.555-12.532 12.445z"></path>
        </symbol>
        <symbol id="arrow-to-down" viewBox="0 0 24 24" fill="none">
            <path d="M6 9L12 15L18 9" stroke-width="2" stroke-linecap="round" stroke-linejoin="round" />
        </symbol>
        <symbol id="arrow-to-right" viewBox="0 0 20 32">
            <path d="M12.84 16l-12.532 -12.445 3.58 -3.555 16.112 16 -16.112 16 -3.58 -3.555 12.532 -12.445z"></path>
        </symbol>
        <symbol id="trash-icon" viewBox="0 0 18 18" fill="none">
            <path
                d="M12 4.5V3.9C12 3.05992 12 2.63988 11.8365 2.31901C11.6927 2.03677 11.4632 1.8073 11.181 1.66349C10.8601 1.5 10.4401 1.5 9.6 1.5H8.4C7.55992 1.5 7.13988 1.5 6.81901 1.66349C6.53677 1.8073 6.3073 2.03677 6.16349 2.31901C6 2.63988 6 3.05992 6 3.9V4.5M7.5 8.625V12.375M10.5 8.625V12.375M2.25 4.5H15.75M14.25 4.5V12.9C14.25 14.1601 14.25 14.7902 14.0048 15.2715C13.789 15.6948 13.4448 16.039 13.0215 16.2548C12.5402 16.5 11.9101 16.5 10.65 16.5H7.35C6.08988 16.5 5.45982 16.5 4.97852 16.2548C4.55516 16.039 4.21095 15.6948 3.99524 15.2715C3.75 14.7902 3.75 14.1601 3.75 12.9V4.5"
                stroke-width="1.5" stroke-linecap="round" stroke-linejoin="round" />
        </symbol>
        <symbol id="heart" viewBox="0 0 24 22" fill="none">
            <path
                d="M20.8401 4.60987C20.3294 4.09888 19.7229 3.69352 19.0555 3.41696C18.388 3.14039 17.6726 2.99805 16.9501 2.99805C16.2276 2.99805 15.5122 3.14039 14.8448 3.41696C14.1773 3.69352 13.5709 4.09888 13.0601 4.60987L12.0001 5.66987L10.9401 4.60987C9.90843 3.57818 8.50915 2.99858 7.05012 2.99858C5.59109 2.99858 4.19181 3.57818 3.16012 4.60987C2.12843 5.64156 1.54883 7.04084 1.54883 8.49987C1.54883 9.95891 2.12843 11.3582 3.16012 12.3899L4.22012 13.4499L12.0001 21.2299L19.7801 13.4499L20.8401 12.3899C21.3511 11.8791 21.7565 11.2727 22.033 10.6052C22.3096 9.93777 22.4519 9.22236 22.4519 8.49987C22.4519 7.77738 22.3096 7.06198 22.033 6.39452C21.7565 5.72706 21.3511 5.12063 20.8401 4.60987Z"
                stroke-width="2" stroke-linecap="round" stroke-linejoin="round" />
        </symbol>
        <symbol id="icon-error" viewBox="0 0 37 32">
            <path fill="#e6e6e6" style="fill: var(--color1, #e6e6e6)"
                d="M18.824 4.039c-0.073 0-0.795 0.056-0.896 0.89h-0.118c0 0 0.035-0.814-0.896-0.857l0.005-0.129c0.073 0 0.765-0.031 0.867-0.866h0.118c0 0-0.080 0.752 0.92 0.87v0.091z">
            </path>
            <path fill="#e6e6e6" style="fill: var(--color1, #e6e6e6)"
                d="M6.251 17.802c-0.074 0-0.795 0.057-0.896 0.89h-0.118c0 0 0.035-0.814-0.896-0.857l0.005-0.129c0.073 0 0.765-0.031 0.867-0.866h0.118c0 0-0.080 0.752 0.92 0.87v0.091z">
            </path>
            <path fill="#e6e6e6" style="fill: var(--color1, #e6e6e6)"
                d="M37.254 17.302c-0.074 0-0.795 0.057-0.896 0.89h-0.118c0 0 0.035-0.814-0.896-0.857l0.005-0.129c0.074 0 0.765-0.031 0.867-0.866h0.118c0 0-0.080 0.752 0.92 0.87v0.091z">
            </path>
            <path fill="#e6e6e6" style="fill: var(--color1, #e6e6e6)"
                d="M13.973 6.969c-0.053 0-0.572 0.040-0.645 0.64h-0.084c0 0 0.025-0.585-0.645-0.616l0.003-0.093c0.053 0 0.551-0.023 0.623-0.622h0.084c0 0-0.057 0.54 0.661 0.626v0.066h0.001z">
            </path>
            <path fill="#e6e6e6" style="fill: var(--color1, #e6e6e6)"
                d="M3.019 13.634c-0.053 0-0.572 0.040-0.644 0.64h-0.084c0 0 0.025-0.585-0.644-0.616l0.003-0.093c0.053 0 0.551-0.023 0.623-0.622h0.084c0 0-0.057 0.54 0.661 0.626v0.066h0.001z">
            </path>
            <path fill="#e6e6e6" style="fill: var(--color1, #e6e6e6)"
                d="M12.44 23.968c-0.053 0-0.572 0.040-0.645 0.641h-0.084c0 0 0.025-0.585-0.645-0.616l0.003-0.093c0.053 0 0.551-0.023 0.623-0.622h0.084c0 0-0.057 0.541 0.661 0.625v0.066l0.001-0.001z">
            </path>
            <path fill="#e6e6e6" style="fill: var(--color1, #e6e6e6)"
                d="M34.964 12.677c-0.035 0-0.37 0.026-0.417 0.415h-0.055c0 0 0.016-0.379-0.417-0.4l0.003-0.060c0.035 0 0.356-0.014 0.404-0.403h0.055c0 0-0.037 0.351 0.428 0.405v0.042z">
            </path>
            <path fill="#e6e6e6" style="fill: var(--color1, #e6e6e6)"
                d="M34.207 24.104c-0.053 0-0.571 0.040-0.645 0.64h-0.084c0 0 0.025-0.585-0.644-0.616l0.003-0.093c0.053 0 0.551-0.023 0.623-0.622h0.085c0 0-0.057 0.54 0.661 0.625v0.066h0.001z">
            </path>
            <path fill="#e6e6e6" style="fill: var(--color1, #e6e6e6)"
                d="M13.826 0.631c-0.041 0-0.449 0.032-0.507 0.503h-0.067c0 0 0.019-0.46-0.506-0.485l0.003-0.073c0.041 0 0.432-0.018 0.49-0.489h0.067c0 0-0.046 0.425 0.519 0.491v0.051h0.001z">
            </path>
            <path fill="#e6e6e6" style="fill: var(--color1, #e6e6e6)"
                d="M33.96 2.597c-0.041 0-0.449 0.032-0.507 0.503h-0.067c0 0 0.019-0.46-0.506-0.485l0.003-0.072c0.041 0 0.432-0.018 0.49-0.489h0.067c0 0-0.046 0.425 0.519 0.491v0.051h0.001z">
            </path>
            <path fill="#e6e6e6" style="fill: var(--color1, #e6e6e6)"
                d="M10.163 19.317c-0.024 0-0.262 0.018-0.296 0.293h-0.039c0 0 0.012-0.268-0.296-0.282l0.002-0.042c0.024 0 0.253-0.010 0.286-0.286h0.039c0 0-0.026 0.248 0.303 0.287v0.030z">
            </path>
            <path fill="#e6e6e6" style="fill: var(--color1, #e6e6e6)"
                d="M7.166 2.894c-0.024 0-0.262 0.019-0.296 0.293h-0.039c0 0 0.012-0.268-0.296-0.282l0.002-0.042c0.024 0 0.253-0.010 0.286-0.286h0.039c0 0-0.026 0.248 0.303 0.287v0.030z">
            </path>
            <path fill="#e6e6e6" style="fill: var(--color1, #e6e6e6)"
                d="M2.832 23.475c-0.039 0-0.416 0.030-0.47 0.466h-0.062c0 0 0.019-0.427-0.469-0.449l0.003-0.067c0.039 0 0.401-0.016 0.454-0.454h0.062c0 0-0.042 0.394 0.481 0.455v0.048z">
            </path>
            <path fill="#e6e6e6" style="fill: var(--color1, #e6e6e6)"
                d="M33.421 7.692c-0.025 0-0.262 0.019-0.296 0.293h-0.039c0 0 0.012-0.268-0.296-0.282l0.002-0.042c0.025 0 0.253-0.010 0.286-0.286h0.039c0 0-0.026 0.248 0.303 0.287v0.030z">
            </path>
            <path fill="#e6e6e6" style="fill: var(--color1, #e6e6e6)"
                d="M24.915 0.317c-0.025 0-0.262 0.019-0.296 0.293h-0.039c0 0 0.012-0.268-0.296-0.282l0.002-0.042c0.025 0 0.253-0.010 0.286-0.286h0.039c0 0-0.026 0.248 0.303 0.287v0.030z">
            </path>
            <path fill="#e6e6e6" style="fill: var(--color1, #e6e6e6)"
                d="M17.644 21.694c-0.025 0-0.262 0.019-0.296 0.293h-0.039c0 0 0.012-0.268-0.296-0.282l0.002-0.042c0.025 0 0.253-0.010 0.286-0.286h0.039c0 0-0.026 0.248 0.303 0.287v0.030z">
            </path>
            <path fill="#fdfdff" style="fill: var(--color2, #fdfdff)"
                d="M35.287 30.541c0 0.286-7.899 0.517-17.644 0.517s-17.644-0.232-17.644-0.517 7.899-0.517 17.644-0.517c9.744 0 17.644 0.232 17.644 0.517z">
            </path>
            <path fill="#9cdfdf" style="fill: var(--color3, #9cdfdf)"
                d="M19.704 9.826c0 0 0.1 3.674 0.349 5.581s1.896 15.022 1.896 15.022h4.441v-28.463h-3.093v3.209c0 0-2.595 0.698-2.495 3.768l-1.097 0.883z">
            </path>
            <path fill="#9cdfdf" style="fill: var(--color3, #9cdfdf)"
                d="M33.076 9.826c0 0-0.1 3.674-0.349 5.581s-1.896 15.022-1.896 15.022h-4.441v-28.463h3.093v3.209c0 0 2.595 0.698 2.495 3.768l1.097 0.883z">
            </path>
            <path fill="#fdfdff" style="fill: var(--color2, #fdfdff)" opacity="0.5"
                d="M19.704 9.826c0 0 0.1 3.674 0.349 5.581s1.896 15.022 1.896 15.022h4.441v-28.463h-3.093v3.209c0 0-2.595 0.698-2.495 3.768l-1.097 0.883z">
            </path>
            <path fill="#fdfdff" style="fill: var(--color2, #fdfdff)" opacity="0.5"
                d="M33.076 9.826c0 0-0.1 3.674-0.349 5.581s-1.896 15.022-1.896 15.022h-4.441v-28.463h3.093v3.209c0 0 2.595 0.698 2.495 3.768l1.097 0.883z">
            </path>
            <path fill="#fdfdff" style="fill: var(--color2, #fdfdff)" opacity="0.3"
                d="M23.876 5.165l-0.044-3.199h1.536l-0.274 3.199h-1.217z"></path>
            <path fill="#fdfdff" style="fill: var(--color2, #fdfdff)" opacity="0.3"
                d="M23.61 9.826h-2.986l2.423 20.604h2.873l-2.31-20.604z"></path>
            <path fill="#9cdfdf" style="fill: var(--color3, #9cdfdf)"
                d="M19.704 9.826c4.283-0.026 9.089-0.026 13.372 0-4.283 0.026-9.089 0.026-13.372 0z"></path>
            <path fill="#fdfdff" style="fill: var(--color2, #fdfdff)" opacity="0.3"
                d="M22.049 8.92c0 0-0.097-1.559 0.414-2.385s1.412-1.37 1.412-1.37h1.217c0 0-1.796 0.81-1.526 3.755h-1.518z">
            </path>
            <path fill="#9cdfdf" style="fill: var(--color3, #9cdfdf)"
                d="M4.914 30.43c0 0 0.391-1.673 0.559-2.454s0.335-1.394 0.335-1.394h2.403c0 0 0.584 2.636 0.759 3.703 0.008 0.052 0.016 0.1 0.023 0.145h-4.080z">
            </path>
            <path fill="#fdfdff" style="fill: var(--color2, #fdfdff)" opacity="0.7"
                d="M4.914 30.43c0 0 0.391-1.673 0.559-2.454s0.335-1.394 0.335-1.394h2.403c0 0 0.584 2.636 0.759 3.703 0.008 0.052 0.016 0.1 0.023 0.145h-4.080z">
            </path>
            <path fill="#fdfdff" style="fill: var(--color2, #fdfdff)" opacity="0.4"
                d="M5.507 30.43l0.479-3.473h0.74l-0.121 3.473h-1.098z"></path>
            <path fill="#9cdfdf" style="fill: var(--color3, #9cdfdf)"
                d="M4.718 22.147c0 0 0.084 1.171 0.307 2.203s0.475 2.621 0.475 2.621h2.934c0 0 0.391-2.175 0.53-2.705s0.252-2.119 0.252-2.119l-4.498 0.001z">
            </path>
            <path fill="#fdfdff" style="fill: var(--color2, #fdfdff)" opacity="0.7"
                d="M4.718 22.147c0 0 0.084 1.171 0.307 2.203s0.475 2.621 0.475 2.621h2.934c0 0 0.391-2.175 0.53-2.705s0.252-2.119 0.252-2.119l-4.498 0.001z">
            </path>
            <path fill="#242424" style="fill: var(--color4, #242424)" opacity="0.3"
                d="M8.293 26.975h-2.609l-0.030 0.211h2.695l-0.057-0.211z"></path>
            <path fill="#fdfdff" style="fill: var(--color2, #fdfdff)" opacity="0.4"
                d="M5.296 22.147l0.69 4.809h0.74c0 0-0.656-4.027-0.589-4.809h-0.841z"></path>
            <path fill="#7e8fdd" style="fill: var(--color5, #7e8fdd)"
                d="M24.552 27.462c0.578-2.185-0.833-4.451-3.151-5.062s-4.665 0.665-5.243 2.85c-0.578 2.185 0.833 4.451 3.151 5.062s4.665-0.665 5.244-2.85z">
            </path>
            <path fill="#242424" style="fill: var(--color4, #242424)" opacity="0.3"
                d="M24.552 27.462c0.578-2.185-0.833-4.451-3.151-5.062s-4.665 0.665-5.243 2.85c-0.578 2.185 0.833 4.451 3.151 5.062s4.665-0.665 5.244-2.85z">
            </path>
            <path fill="#7e8fdd" style="fill: var(--color5, #7e8fdd)"
                d="M23.453 28.675c1.319-1.836 0.897-4.392-0.943-5.709s-4.401-0.895-5.72 0.941c-1.319 1.836-0.897 4.392 0.943 5.709s4.401 0.895 5.72-0.941z">
            </path>
            <path fill="#7e8fdd" style="fill: var(--color5, #7e8fdd)"
                d="M20.378 30.204c2.168-0.145 3.808-2.016 3.664-4.18s-2.020-3.801-4.188-3.657c-2.168 0.145-3.808 2.016-3.664 4.18s2.020 3.801 4.188 3.657z">
            </path>
            <path fill="#fdfdff" style="fill: var(--color2, #fdfdff)" opacity="0.8"
                d="M20.378 30.204c2.168-0.145 3.808-2.016 3.664-4.18s-2.020-3.801-4.188-3.657c-2.168 0.145-3.808 2.016-3.664 4.18s2.020 3.801 4.188 3.657z">
            </path>
            <path fill="#7e8fdd" style="fill: var(--color5, #7e8fdd)"
                d="M16.584 25.769c-0.1 0.666-0.008 1.346 0.266 1.962 0.051 0.113 0.183 0.163 0.297 0.112 0.007-0.003 0.013-0.007 0.020-0.010l2.353-1.368c0.050-0.025 0.068-0.087 0.043-0.136-0.014-0.026-0.037-0.045-0.066-0.051l-2.637-0.693c-0.119-0.031-0.241 0.041-0.272 0.159-0.002 0.008-0.003 0.016-0.005 0.025h0.001z">
            </path>
            <path fill="#7e8fdd" style="fill: var(--color5, #7e8fdd)"
                d="M19.668 26.719l-2.354 1.367c-0.107 0.062-0.142 0.2-0.079 0.306 0.004 0.007 0.008 0.013 0.013 0.019 0.401 0.541 0.949 0.957 1.578 1.2 0.116 0.045 0.245-0.013 0.29-0.128 0.003-0.008 0.005-0.014 0.007-0.022l0.695-2.629c0.015-0.054-0.017-0.109-0.071-0.124-0.027-0.008-0.055-0.003-0.078 0.011v-0.001z">
            </path>
            <path fill="#7e8fdd" style="fill: var(--color5, #7e8fdd)"
                d="M20.103 26.908l-0.695 2.629c-0.031 0.119 0.039 0.241 0.159 0.272 0.008 0.003 0.017 0.004 0.026 0.005 0.667 0.099 1.348 0.007 1.965-0.266 0.113-0.050 0.165-0.181 0.115-0.293-0.003-0.007-0.008-0.015-0.012-0.023l-1.371-2.349c-0.027-0.049-0.089-0.066-0.138-0.039-0.025 0.014-0.042 0.036-0.049 0.064v-0.001z">
            </path>
            <path fill="#7e8fdd" style="fill: var(--color5, #7e8fdd)"
                d="M16.937 25.301l2.633 0.693c0.054 0.014 0.11-0.018 0.125-0.072 0.007-0.026 0.003-0.054-0.010-0.077l-1.371-2.349c-0.063-0.106-0.199-0.142-0.305-0.080-0.007 0.004-0.014 0.008-0.020 0.013-0.542 0.401-0.96 0.946-1.202 1.574-0.045 0.115 0.013 0.244 0.128 0.289 0.008 0.003 0.015 0.006 0.024 0.008h-0.001z">
            </path>
            <path fill="#7e8fdd" style="fill: var(--color5, #7e8fdd)"
                d="M20.543 26.735l1.371 2.349c0.063 0.106 0.199 0.142 0.305 0.080 0.007-0.004 0.013-0.008 0.020-0.014 0.542-0.4 0.96-0.947 1.202-1.575 0.045-0.115-0.012-0.244-0.127-0.288-0.008-0.003-0.016-0.006-0.025-0.008l-2.634-0.694c-0.054-0.014-0.11 0.018-0.125 0.073-0.007 0.026-0.003 0.054 0.011 0.078l0.001-0.001z">
            </path>
            <path fill="#7e8fdd" style="fill: var(--color5, #7e8fdd)"
                d="M20.125 25.675l0.695-2.629c0.031-0.12-0.040-0.242-0.16-0.273-0.007-0.002-0.016-0.003-0.024-0.005-0.667-0.099-1.349-0.007-1.966 0.267-0.112 0.050-0.164 0.181-0.114 0.294 0.003 0.007 0.007 0.014 0.011 0.022l1.371 2.349c0.029 0.048 0.091 0.065 0.139 0.036 0.023-0.014 0.040-0.035 0.047-0.061h0.001z">
            </path>
            <path fill="#7e8fdd" style="fill: var(--color5, #7e8fdd)"
                d="M20.559 25.863l2.353-1.368c0.107-0.062 0.143-0.198 0.080-0.304-0.004-0.007-0.008-0.013-0.013-0.020-0.401-0.541-0.949-0.957-1.578-1.2-0.115-0.045-0.244 0.012-0.289 0.126-0.003 0.008-0.006 0.016-0.008 0.025l-0.695 2.629c-0.014 0.054 0.018 0.11 0.073 0.125 0.026 0.007 0.054 0.003 0.078-0.011l-0.001-0.001z">
            </path>
            <path fill="#7e8fdd" style="fill: var(--color5, #7e8fdd)"
                d="M20.732 26.302l2.633 0.693c0.118 0.032 0.241-0.039 0.272-0.157 0.003-0.008 0.004-0.018 0.005-0.026 0.1-0.666 0.008-1.346-0.265-1.962-0.051-0.113-0.183-0.163-0.297-0.112-0.007 0.003-0.014 0.007-0.020 0.011l-2.354 1.367c-0.048 0.029-0.064 0.091-0.035 0.139 0.014 0.023 0.036 0.040 0.062 0.047z">
            </path>
            <path fill="#fdfdff" style="fill: var(--color2, #fdfdff)" opacity="0.3"
                d="M16.584 25.769c-0.1 0.666-0.008 1.346 0.266 1.963 0.051 0.113 0.183 0.163 0.297 0.112 0.007-0.003 0.013-0.007 0.020-0.010l2.353-1.368c0.050-0.025 0.068-0.087 0.043-0.136-0.014-0.026-0.037-0.045-0.066-0.051l-2.637-0.693c-0.119-0.031-0.241 0.040-0.272 0.159-0.002 0.008-0.003 0.016-0.005 0.024h0.001z">
            </path>
            <path fill="#fdfdff" style="fill: var(--color2, #fdfdff)" opacity="0.3"
                d="M19.668 26.719l-2.354 1.367c-0.107 0.062-0.142 0.2-0.079 0.306 0.004 0.007 0.008 0.014 0.013 0.019 0.401 0.541 0.949 0.957 1.578 1.2 0.116 0.045 0.245-0.013 0.29-0.128 0.003-0.007 0.005-0.014 0.007-0.022l0.695-2.629c0.015-0.054-0.017-0.109-0.071-0.124-0.027-0.008-0.055-0.003-0.078 0.011v-0.001z">
            </path>
            <path fill="#fdfdff" style="fill: var(--color2, #fdfdff)" opacity="0.3"
                d="M20.103 26.908l-0.695 2.629c-0.031 0.119 0.039 0.241 0.159 0.272 0.008 0.003 0.017 0.004 0.026 0.005 0.667 0.099 1.348 0.007 1.965-0.266 0.113-0.050 0.165-0.181 0.115-0.293-0.003-0.008-0.008-0.015-0.012-0.023l-1.371-2.349c-0.027-0.049-0.089-0.066-0.138-0.039-0.025 0.013-0.042 0.036-0.049 0.064v-0.001z">
            </path>
            <path fill="#fdfdff" style="fill: var(--color2, #fdfdff)" opacity="0.3"
                d="M16.937 25.301l2.633 0.693c0.054 0.014 0.11-0.018 0.125-0.072 0.007-0.026 0.003-0.054-0.010-0.077l-1.371-2.349c-0.062-0.106-0.198-0.142-0.305-0.080-0.007 0.004-0.014 0.008-0.020 0.013-0.542 0.401-0.96 0.946-1.202 1.574-0.045 0.115 0.013 0.244 0.128 0.289 0.008 0.003 0.015 0.006 0.024 0.008h-0.001z">
            </path>
            <path fill="#fdfdff" style="fill: var(--color2, #fdfdff)" opacity="0.3"
                d="M20.543 26.735l1.371 2.349c0.063 0.106 0.199 0.142 0.305 0.080 0.007-0.004 0.013-0.008 0.020-0.014 0.542-0.4 0.96-0.947 1.202-1.575 0.045-0.115-0.012-0.244-0.127-0.288-0.008-0.003-0.016-0.006-0.025-0.007l-2.634-0.694c-0.054-0.014-0.11 0.018-0.125 0.072-0.007 0.026-0.003 0.054 0.011 0.078l0.001-0.001z">
            </path>
            <path fill="#fdfdff" style="fill: var(--color2, #fdfdff)" opacity="0.3"
                d="M20.125 25.675l0.695-2.629c0.031-0.12-0.040-0.242-0.16-0.273-0.007-0.002-0.016-0.003-0.024-0.005-0.667-0.099-1.349-0.007-1.966 0.267-0.112 0.050-0.164 0.181-0.114 0.294 0.003 0.007 0.007 0.014 0.011 0.022l1.371 2.349c0.029 0.048 0.091 0.065 0.139 0.036 0.023-0.014 0.040-0.035 0.047-0.061h0.001z">
            </path>
            <path fill="#fdfdff" style="fill: var(--color2, #fdfdff)" opacity="0.3"
                d="M20.559 25.863l2.353-1.368c0.107-0.062 0.143-0.198 0.080-0.304-0.004-0.007-0.008-0.014-0.013-0.020-0.401-0.541-0.949-0.957-1.578-1.2-0.115-0.045-0.244 0.012-0.289 0.126-0.003 0.008-0.006 0.016-0.008 0.025l-0.695 2.628c-0.014 0.054 0.018 0.11 0.073 0.125 0.026 0.007 0.054 0.003 0.078-0.011l-0.001-0.001z">
            </path>
            <path fill="#fdfdff" style="fill: var(--color2, #fdfdff)" opacity="0.3"
                d="M20.732 26.302l2.633 0.693c0.118 0.032 0.241-0.039 0.272-0.157 0.003-0.008 0.004-0.018 0.005-0.026 0.1-0.666 0.008-1.346-0.265-1.962-0.051-0.113-0.183-0.163-0.297-0.112-0.007 0.003-0.014 0.007-0.020 0.011l-2.354 1.367c-0.048 0.029-0.064 0.091-0.035 0.139 0.014 0.023 0.036 0.040 0.062 0.046z">
            </path>
            <path fill="#7e8fdd" style="fill: var(--color5, #7e8fdd)"
                d="M18.145 26.48c0.112-0.014 0.209 0.017 0.216 0.071s-0.078 0.109-0.191 0.123c-0.112 0.014-0.209-0.017-0.216-0.071s0.078-0.11 0.191-0.123z">
            </path>
            <path fill="#fdfdff" style="fill: var(--color2, #fdfdff)" opacity="0.6"
                d="M18.145 26.48c0.112-0.014 0.209 0.017 0.216 0.071s-0.078 0.109-0.191 0.123c-0.112 0.014-0.209-0.017-0.216-0.071s0.078-0.11 0.191-0.123z">
            </path>
            <path fill="#7e8fdd" style="fill: var(--color5, #7e8fdd)"
                d="M18.824 27.57c0.084-0.075 0.182-0.103 0.218-0.063s-0.003 0.134-0.088 0.209c-0.085 0.074-0.182 0.104-0.219 0.063s0.006-0.131 0.089-0.209z">
            </path>
            <path fill="#fdfdff" style="fill: var(--color2, #fdfdff)" opacity="0.6"
                d="M18.824 27.57c0.084-0.075 0.182-0.103 0.218-0.063s-0.003 0.134-0.088 0.209c-0.085 0.074-0.182 0.104-0.219 0.063s0.006-0.131 0.089-0.209z">
            </path>
            <path fill="#7e8fdd" style="fill: var(--color5, #7e8fdd)"
                d="M18.781 28.475c0.067-0.091 0.155-0.14 0.199-0.108s0.025 0.131-0.041 0.223c-0.066 0.092-0.155 0.14-0.199 0.108s-0.026-0.131 0.041-0.223z">
            </path>
            <path fill="#fdfdff" style="fill: var(--color2, #fdfdff)" opacity="0.6"
                d="M18.781 28.475c0.067-0.091 0.155-0.14 0.199-0.108s0.025 0.131-0.041 0.223c-0.066 0.092-0.155 0.14-0.199 0.108s-0.026-0.131 0.041-0.223z">
            </path>
            <path fill="#7e8fdd" style="fill: var(--color5, #7e8fdd)"
                d="M21.276 24.023c0.061-0.096 0.146-0.15 0.192-0.122s0.035 0.129-0.025 0.226c-0.060 0.097-0.146 0.15-0.192 0.122s-0.033-0.128 0.025-0.226z">
            </path>
            <path fill="#fdfdff" style="fill: var(--color2, #fdfdff)" opacity="0.6"
                d="M21.276 24.023c0.061-0.096 0.146-0.15 0.192-0.122s0.035 0.129-0.025 0.226c-0.060 0.097-0.146 0.15-0.192 0.122s-0.033-0.128 0.025-0.226z">
            </path>
            <path fill="#7e8fdd" style="fill: var(--color5, #7e8fdd)"
                d="M21.251 24.907c0.066-0.092 0.155-0.14 0.199-0.109s0.025 0.131-0.041 0.223c-0.066 0.092-0.155 0.14-0.199 0.109s-0.026-0.131 0.041-0.223z">
            </path>
            <path fill="#fdfdff" style="fill: var(--color2, #fdfdff)" opacity="0.6"
                d="M21.251 24.907c0.066-0.092 0.155-0.14 0.199-0.109s0.025 0.131-0.041 0.223c-0.066 0.092-0.155 0.14-0.199 0.109s-0.026-0.131 0.041-0.223z">
            </path>
            <path fill="#fdfdff" style="fill: var(--color2, #fdfdff)" opacity="0.6"
                d="M22.422 26.111c0.112-0.018 0.209 0.011 0.218 0.064s-0.075 0.11-0.188 0.129c-0.111 0.019-0.209-0.011-0.218-0.064s0.074-0.111 0.188-0.129z">
            </path>
            <path fill="#fdfdff" style="fill: var(--color2, #fdfdff)" opacity="0.6"
                d="M18.157 24.639c-0.072-0.088-0.095-0.186-0.053-0.22s0.134 0.010 0.205 0.097c0.072 0.088 0.096 0.186 0.053 0.22s-0.133-0.009-0.205-0.097z">
            </path>
            <path fill="#fdfdff" style="fill: var(--color2, #fdfdff)" opacity="0.6"
                d="M18.426 25.375c-0.113-0.006-0.202-0.056-0.199-0.109s0.098-0.092 0.21-0.086c0.113 0.006 0.202 0.056 0.199 0.11s-0.097 0.093-0.21 0.086v-0.001z">
            </path>
            <path fill="#fdfdff" style="fill: var(--color2, #fdfdff)" opacity="0.6"
                d="M19.483 23.987c-0.012-0.112 0.024-0.207 0.077-0.213 0.053-0.005 0.106 0.082 0.117 0.194s-0.024 0.207-0.077 0.213c-0.053 0.005-0.106-0.081-0.117-0.194z">
            </path>
            <path fill="#7e8fdd" style="fill: var(--color5, #7e8fdd)"
                d="M20.639 28.754c-0.012-0.111 0.022-0.207 0.074-0.213s0.107 0.081 0.119 0.194c0.013 0.112-0.022 0.207-0.074 0.213s-0.106-0.081-0.119-0.194z">
            </path>
            <path fill="#fdfdff" style="fill: var(--color2, #fdfdff)" opacity="0.6"
                d="M20.639 28.754c-0.012-0.111 0.022-0.207 0.074-0.213s0.107 0.081 0.119 0.194c0.013 0.112-0.022 0.207-0.074 0.213s-0.106-0.081-0.119-0.194z">
            </path>
            <path fill="#7e8fdd" style="fill: var(--color5, #7e8fdd)"
                d="M21.516 27.356c-0.095-0.063-0.146-0.15-0.117-0.195s0.131-0.031 0.226 0.031c0.095 0.062 0.146 0.149 0.117 0.195s-0.132 0.030-0.226-0.031z">
            </path>
            <path fill="#fdfdff" style="fill: var(--color2, #fdfdff)" opacity="0.6"
                d="M21.516 27.356c-0.095-0.063-0.146-0.15-0.117-0.195s0.131-0.031 0.226 0.031c0.095 0.062 0.146 0.149 0.117 0.195s-0.132 0.030-0.226-0.031z">
            </path>
            <path fill="#7e8fdd" style="fill: var(--color5, #7e8fdd)"
                d="M22.297 10.996h-15.877c0 0 0.091 4.781 5.064 5.828 0 0-0.33 3.322 2.464 3.659v7.954c-2.952 0.189-4.185 1.994-4.185 1.994h9.555c0 0-1.395-1.806-4.366-1.994v-7.979c2.599-0.456 2.282-3.633 2.282-3.633 4.973-1.047 5.064-5.828 5.064-5.828v-0.001z">
            </path>
            <path fill="#fdfdff" style="fill: var(--color2, #fdfdff)" opacity="0.7"
                d="M22.297 10.996h-15.877c0 0 0.091 4.781 5.064 5.828 0 0-0.33 3.322 2.464 3.659v7.954c-2.952 0.189-4.185 1.994-4.185 1.994h9.555c0 0-1.395-1.806-4.366-1.994v-7.979c2.599-0.456 2.282-3.633 2.282-3.633 4.973-1.047 5.064-5.828 5.064-5.828v-0.001z">
            </path>
            <path fill="#fdfdff" style="fill: var(--color2, #fdfdff)" opacity="0.4"
                d="M21.459 10.996h-13.797c0 0 0.145 4.25 4.467 5.164 0 0-0.473 3.613 2.35 3.613h0.209c2.259-0.398 2.004-3.708 2.004-3.708 4.562-1.133 4.768-5.070 4.768-5.070h-0.001z">
            </path>
            <path fill="#7e8fdd" style="fill: var(--color5, #7e8fdd)" opacity="0.9"
                d="M22.297 10.996c0 0.305-3.554 0.553-7.938 0.553s-7.938-0.248-7.938-0.553 3.554-0.553 7.938-0.553c4.384 0 7.938 0.248 7.938 0.553z">
            </path>
            <path fill="#fdfdff" style="fill: var(--color2, #fdfdff)" opacity="0.7"
                d="M22.297 10.996c0 0.305-3.554 0.553-7.938 0.553s-7.938-0.248-7.938-0.553 3.554-0.553 7.938-0.553c4.384 0 7.938 0.248 7.938 0.553z">
            </path>
            <path fill="#7e8fdd" style="fill: var(--color5, #7e8fdd)" opacity="0.9"
                d="M20.332 13.819c-0.678 1.098-1.93 1.822-3.641 2.247 0 0 0.255 3.311-2.004 3.708h-0.209c-2.823 0-2.35-3.613-2.35-3.613-1.621-0.343-2.869-1.079-3.565-2.407 0 0 2.254-0.159 4.233 0.156s3.262 0.561 5.287 0.18c1.292-0.244 2.249-0.271 2.249-0.271l0.001 0.001z">
            </path>
            <path fill="#242424" style="fill: var(--color4, #242424)" opacity="0.3"
                d="M8.563 13.753c0 0 2.875 1.315 6.949 1.064s4.82-0.998 4.82-0.998-1.227 0.028-2.248 0.271c-1.021 0.243-2.619 0.191-3.324 0.11-0.686-0.078-3.651-0.683-6.197-0.446v-0.001z">
            </path>
            <path fill="#7e8fdd" style="fill: var(--color5, #7e8fdd)"
                d="M11.309 15.546l-8.383-11.028 0.417-0.344 8.441 11.073c0 0 0.007 0.405-0.476 0.299v-0.001z"></path>
            <path fill="#242424" style="fill: var(--color4, #242424)" opacity="0.3"
                d="M11.309 15.546l-8.383-11.028 0.417-0.344 8.441 11.073c0 0 0.007 0.405-0.476 0.299v-0.001z"></path>
            <path fill="#7e8fdd" style="fill: var(--color5, #7e8fdd)"
                d="M10.565 8.279c-0.057-0.102-0.115-0.201-0.182-0.3-1.27-1.902-3.758-2.473-5.557-1.276s-2.227 3.71-0.957 5.61c0.065 0.099 0.135 0.192 0.208 0.284l6.489-4.319z">
            </path>
            <path fill="#242424" style="fill: var(--color4, #242424)" opacity="0.3"
                d="M10.565 8.279c-0.057-0.102-0.115-0.201-0.182-0.3-1.27-1.902-3.758-2.473-5.557-1.276s-2.227 3.71-0.957 5.61c0.065 0.099 0.135 0.192 0.208 0.284l6.489-4.319z">
            </path>
            <path fill="#7e8fdd" style="fill: var(--color5, #7e8fdd)"
                d="M10.575 8.273c-0.022-0.035-0.042-0.068-0.064-0.102-1.199-1.796-3.63-2.28-5.429-1.083s-2.285 3.623-1.085 5.418c0.023 0.034 0.046 0.066 0.069 0.099l6.509-4.332z">
            </path>
            <path fill="#fdfdff" style="fill: var(--color2, #fdfdff)" opacity="0.8"
                d="M10.439 8.358c-0.019-0.032-0.040-0.065-0.060-0.096-1.151-1.723-3.484-2.188-5.211-1.039s-2.193 3.478-1.042 5.201c0.022 0.032 0.044 0.062 0.063 0.092l6.25-4.157z">
            </path>
            <path fill="#7e8fdd" style="fill: var(--color5, #7e8fdd)"
                d="M7.656 9.911l2.16-1.443c0.098-0.067 0.123-0.2 0.056-0.298-0.003-0.006-0.008-0.011-0.012-0.016-0.414-0.493-0.96-0.857-1.574-1.052-0.112-0.035-0.232 0.027-0.268 0.138-0.003 0.008-0.004 0.015-0.006 0.023l-0.509 2.545c-0.012 0.053 0.022 0.105 0.075 0.117 0.027 0.006 0.056 0 0.079-0.016v0.002z">
            </path>
            <path fill="#7e8fdd" style="fill: var(--color5, #7e8fdd)"
                d="M7.232 9.756l0.51-2.546c0.023-0.115-0.052-0.228-0.167-0.25-0.008-0.002-0.015-0.003-0.023-0.003-0.642-0.056-1.286 0.072-1.858 0.368-0.105 0.053-0.146 0.18-0.093 0.285 0.004 0.008 0.008 0.015 0.013 0.022l1.446 2.162c0.034 0.043 0.096 0.050 0.139 0.016 0.017-0.014 0.029-0.031 0.034-0.052z">
            </path>
            <path fill="#7e8fdd" style="fill: var(--color5, #7e8fdd)"
                d="M6.668 10.37l-2.551-0.51c-0.116-0.023-0.229 0.052-0.252 0.169-0.002 0.008-0.003 0.015-0.003 0.023-0.056 0.641 0.072 1.284 0.368 1.855 0.054 0.105 0.182 0.146 0.287 0.092 0.007-0.003 0.014-0.008 0.020-0.012l2.164-1.441c0.044-0.032 0.053-0.094 0.021-0.137-0.014-0.019-0.033-0.032-0.056-0.037l0.001-0.001z">
            </path>
            <path fill="#7e8fdd" style="fill: var(--color5, #7e8fdd)"
                d="M6.822 9.945l-1.444-2.16c-0.067-0.098-0.2-0.122-0.298-0.056-0.006 0.003-0.011 0.008-0.016 0.012-0.494 0.413-0.859 0.958-1.054 1.571-0.035 0.113 0.027 0.233 0.139 0.268 0.007 0.003 0.014 0.004 0.022 0.006l2.55 0.508c0.054 0.009 0.105-0.027 0.113-0.081 0.004-0.024-0.001-0.049-0.014-0.069h0.002z">
            </path>
            <path fill="#fdfdff" style="fill: var(--color2, #fdfdff)" opacity="0.3"
                d="M7.656 9.911l2.16-1.443c0.098-0.067 0.123-0.2 0.056-0.298-0.003-0.006-0.008-0.011-0.012-0.016-0.414-0.493-0.96-0.857-1.574-1.052-0.112-0.035-0.232 0.027-0.268 0.138-0.003 0.008-0.004 0.015-0.006 0.023l-0.509 2.545c-0.012 0.053 0.022 0.105 0.075 0.117 0.027 0.006 0.056 0 0.079-0.016v0.002z">
            </path>
            <path fill="#fdfdff" style="fill: var(--color2, #fdfdff)" opacity="0.3"
                d="M7.232 9.756l0.51-2.546c0.023-0.115-0.052-0.228-0.167-0.25-0.008-0.002-0.015-0.003-0.023-0.003-0.642-0.056-1.286 0.072-1.858 0.368-0.105 0.053-0.146 0.18-0.093 0.285 0.004 0.008 0.008 0.015 0.013 0.022l1.446 2.162c0.034 0.043 0.096 0.050 0.139 0.016 0.017-0.014 0.029-0.031 0.034-0.052z">
            </path>
            <path fill="#fdfdff" style="fill: var(--color2, #fdfdff)" opacity="0.3"
                d="M6.668 10.37l-2.551-0.51c-0.116-0.023-0.229 0.052-0.252 0.169-0.002 0.008-0.003 0.015-0.003 0.023-0.056 0.641 0.072 1.284 0.368 1.855 0.054 0.105 0.182 0.146 0.287 0.092 0.007-0.003 0.014-0.008 0.020-0.012l2.164-1.441c0.044-0.032 0.053-0.094 0.021-0.137-0.014-0.019-0.033-0.032-0.056-0.037l0.001-0.001z">
            </path>
            <path fill="#fdfdff" style="fill: var(--color2, #fdfdff)" opacity="0.3"
                d="M6.822 9.945l-1.444-2.16c-0.067-0.098-0.2-0.122-0.298-0.056-0.006 0.003-0.011 0.008-0.016 0.012-0.494 0.413-0.859 0.958-1.054 1.571-0.035 0.113 0.027 0.233 0.139 0.268 0.007 0.003 0.014 0.004 0.022 0.006l2.55 0.508c0.054 0.009 0.105-0.027 0.113-0.081 0.004-0.024-0.001-0.049-0.014-0.069h0.002z">
            </path>
            <path fill="#7e8fdd" style="fill: var(--color5, #7e8fdd)"
                d="M4.987 11.231c-0.104 0.031-0.199 0.016-0.214-0.033s0.057-0.116 0.16-0.146c0.104-0.031 0.2-0.015 0.215 0.035s-0.058 0.116-0.16 0.145l-0.001-0.001z">
            </path>
            <path fill="#fdfdff" style="fill: var(--color2, #fdfdff)" opacity="0.6"
                d="M4.987 11.231c-0.104 0.031-0.199 0.016-0.214-0.033s0.057-0.116 0.16-0.146c0.104-0.031 0.2-0.015 0.215 0.035s-0.058 0.116-0.16 0.145l-0.001-0.001z">
            </path>
            <path fill="#7e8fdd" style="fill: var(--color5, #7e8fdd)"
                d="M5.566 10.615c-0.106 0.024-0.201 0.003-0.211-0.048s0.062-0.112 0.169-0.132c0.107-0.020 0.201-0.003 0.212 0.049s-0.064 0.109-0.17 0.132v-0.001z">
            </path>
            <path fill="#fdfdff" style="fill: var(--color2, #fdfdff)" opacity="0.6"
                d="M5.566 10.615c-0.106 0.024-0.201 0.003-0.211-0.048s0.062-0.112 0.169-0.132c0.107-0.020 0.201-0.003 0.212 0.049s-0.064 0.109-0.17 0.132v-0.001z">
            </path>
            <path fill="#7e8fdd" style="fill: var(--color5, #7e8fdd)"
                d="M8.444 8.252c-0.063 0.087-0.149 0.135-0.191 0.105s-0.024-0.126 0.037-0.213 0.148-0.135 0.19-0.105c0.042 0.030 0.025 0.126-0.036 0.214z">
            </path>
            <path fill="#fdfdff" style="fill: var(--color2, #fdfdff)" opacity="0.6"
                d="M8.444 8.252c-0.063 0.087-0.149 0.135-0.191 0.105s-0.024-0.126 0.037-0.213 0.148-0.135 0.19-0.105c0.042 0.030 0.025 0.126-0.036 0.214z">
            </path>
            <path fill="#fdfdff" style="fill: var(--color2, #fdfdff)" opacity="0.6"
                d="M5.611 9.095c0.080 0.073 0.118 0.163 0.083 0.201s-0.128 0.011-0.208-0.061c-0.080-0.072-0.117-0.162-0.083-0.201s0.128-0.011 0.208 0.061z">
            </path>
            <path fill="#7e8fdd" style="fill: var(--color5, #7e8fdd)"
                d="M5.289 6.007c0.046 0.462-0.291 0.873-0.753 0.92s-0.875-0.29-0.922-0.752 0.291-0.873 0.753-0.92c0.463-0.046 0.875 0.29 0.922 0.752z">
            </path>
            <path fill="#fdfdff" style="fill: var(--color2, #fdfdff)" opacity="0.3"
                d="M3.803 5.766c0 0-0.202 0.328-0.024 0.649s0.438 0.384 0.438 0.384 0.005-0.325-0.020-0.639c-0.025-0.314-0.394-0.395-0.394-0.395h0.001z">
            </path>
            <path fill="#fdfdff" style="fill: var(--color2, #fdfdff)" opacity="0.27"
                d="M21.432 11.282c-4.462 0.361-9.048 0.348-13.743 0.002 0 0 0.012 2.129 1.872 3.71 0.622 0.529 1.492 0.937 2.574 1.165 0 0-0.473 3.613 2.35 3.613h0.209c2.259-0.398 2.004-3.708 2.004-3.708 1.011-0.251 1.802-0.53 2.431-0.983 2.207-1.592 2.303-3.8 2.303-3.8z">
            </path>
            <path fill="#9cdfdf" style="fill: var(--color3, #9cdfdf)"
                d="M22.297 10.996c-0.005 0.044-0.052 0.064-0.087 0.082-0.271 0.109-0.568 0.137-0.855 0.18-0.993 0.124-1.994 0.175-2.994 0.22-3.663 0.12-7.35 0.156-10.999-0.22-0.287-0.043-0.584-0.072-0.855-0.18-0.035-0.019-0.081-0.039-0.087-0.082 0.005 0.044 0.052 0.063 0.087 0.082 0.271 0.108 0.568 0.136 0.855 0.178 3.651 0.366 7.335 0.315 10.999 0.212 0.999-0.042 2-0.091 2.994-0.212 0.287-0.042 0.584-0.070 0.855-0.178 0.035-0.019 0.081-0.038 0.087-0.082z">
            </path>
            <path fill="#242424" style="fill: var(--color4, #242424)" opacity="0.3"
                d="M13.948 20.482v0.21c0 0 0.547 0.105 1.003-0.032v-0.203c-0.371 0.091-0.593 0.087-0.981 0.030z"></path>
            <path fill="#9cdfdf" style="fill: var(--color3, #9cdfdf)"
                d="M12.941 28.593c0.922-0.243 1.905-0.267 2.837-0.071-0.938-0.169-1.908-0.146-2.837 0.071z"></path>
            <path fill="#fdfdff" style="fill: var(--color2, #fdfdff)" opacity="0.3"
                d="M14.359 17.242c0.126 0 0.228-0.102 0.228-0.227s-0.102-0.228-0.228-0.228-0.228 0.102-0.228 0.228c0 0.126 0.102 0.227 0.228 0.227z">
            </path>
            <path fill="#fdfdff" style="fill: var(--color2, #fdfdff)" opacity="0.3"
                d="M13.72 17.766c0 0.096-0.078 0.174-0.174 0.174s-0.174-0.078-0.174-0.174c0-0.096 0.078-0.174 0.174-0.174s0.174 0.078 0.174 0.174z">
            </path>
            <path fill="#fdfdff" style="fill: var(--color2, #fdfdff)" opacity="0.3"
                d="M15.881 18.303c0.062 0 0.112-0.050 0.112-0.111s-0.050-0.111-0.112-0.111c-0.062 0-0.111 0.050-0.111 0.111s0.050 0.111 0.111 0.111z">
            </path>
            <path fill="#fdfdff" style="fill: var(--color2, #fdfdff)" opacity="0.3"
                d="M13.398 16.855c0.062 0 0.111-0.050 0.111-0.111s-0.050-0.111-0.111-0.111c-0.062 0-0.111 0.050-0.111 0.111s0.050 0.111 0.111 0.111z">
            </path>
            <path fill="#fdfdff" style="fill: var(--color2, #fdfdff)" opacity="0.3"
                d="M15.424 18.719c0 0.155-0.126 0.281-0.281 0.281s-0.281-0.126-0.281-0.281c0-0.155 0.126-0.281 0.281-0.281s0.281 0.126 0.281 0.281z">
            </path>
        </symbol>
        <svg id="background" width="153" height="761" viewBox="0 0 153 761" fill="none">
            <path
                d="M-277.103 -181.909C-355.566 -111.284 -519.106 36.991 -545.559 65.0891C-600.297 152.138 -715.587 339.003 -738.844 390.069C-767.914 453.901 -490.997 752.919 -478.032 759.96C-465.067 767.002 -14.7749 592.218 2.90378 569.971C17.0467 552.173 50.4762 241.937 65.423 89.044C87.3347 17.7846 135.165 -132.112 151.193 -161.625C171.229 -198.517 -37.5173 -205.725 -74.97 -167.677C-104.932 -137.238 -190.819 -5.88643 -230.017 55.9846L-277.103 -181.909Z"
                fill="#9CDFDF" fill-opacity="0.8" />
        </svg>
    </defs>
</svg>