<svg aria-hidden="true" style="position: absolute; width: 0; height: 0; overflow: hidden;" version="1.1"
    xmlns="http://www.w3.org/2000/svg" xmlns:xlink="http://www.w3.org/1999/xlink">
    <defs>
        <symbol id="icon-burger" viewBox="0 0 32 32">
            <path stroke-linejoin="round" stroke-linecap="round" stroke-miterlimit="4" stroke-width="1.6"
                d="M28 13.333h-24M28 8h-24M28 18.667h-24M28 24h-24"></path>
        </symbol>
        <symbol id="icon-search" viewBox="0 0 32 32">
            <path
                d="M29.092 31.514l-6.85-6.86c-1.066 0.92-2.318 1.662-3.687 2.158l-0.083 0.026c-1.336 0.494-2.88 0.78-4.49 0.78-0.031 0-0.062-0-0.092-0l0.005 0c-3.878 0-7.162-1.346-9.854-4.044-2.694-2.698-4.040-5.954-4.040-9.764 0-3.812 1.346-7.066 4.040-9.764 2.692-2.698 5.96-4.046 9.8-4.046 3.806 0 7.046 1.348 9.72 4.046 2.676 2.698 4.014 5.952 4.014 9.764 0 1.546-0.252 3.040-0.754 4.478-0.557 1.551-1.323 2.891-2.282 4.069l0.020-0.025 6.958 6.862c0.298 0.261 0.485 0.641 0.485 1.066 0 0.014-0 0.028-0.001 0.042l0-0.002c-0.006 0.48-0.212 0.911-0.539 1.213l-0.001 0.001c-0.293 0.3-0.701 0.486-1.153 0.486-0.011 0-0.022-0-0.033-0l0.002 0c-0.009 0-0.020 0-0.031 0-0.452 0-0.86-0.186-1.153-0.486l-0-0zM13.84 24.382c2.908 0 5.386-1.034 7.432-3.1 2.046-2.068 3.070-4.56 3.070-7.472 0-2.914-1.024-5.404-3.070-7.472s-4.524-3.098-7.432-3.098c-2.944 0-5.448 1.032-7.512 3.1s-3.096 4.56-3.096 7.472c0 2.912 1.032 5.404 3.096 7.47 2.064 2.068 4.568 3.102 7.512 3.102z">
            </path>
        </symbol>
        <symbol id="icon-youtube" viewBox="0 0 46 32">
            <path
                d="M35.805 0.285c-2.137-0.126-6.537-0.251-13.2-0.251h-0.88c-6.411 0-10.686 0.126-12.823 0.377-2.891 0.251-4.903 1.006-6.034 2.011-1.006 0.88-1.76 2.514-2.011 4.651-0.126 1.383-0.251 4.274-0.251 8.674v0.629c0 4.149 0.126 7.040 0.377 8.423 0.377 2.011 1.006 3.52 2.263 4.4 1.257 1.006 3.394 1.634 6.411 1.886 2.137 0.126 6.537 0.251 13.2 0.251h0.88c6.411 0 10.686-0.126 12.823-0.377 2.891-0.251 4.903-1.006 6.034-2.011 1.006-0.88 1.76-2.514 2.011-4.651 0.126-1.383 0.251-4.274 0.251-8.674v-0.629c0-4.149-0.126-7.040-0.377-8.423-0.377-2.011-1.006-3.52-2.263-4.4-1.257-1.006-3.394-1.634-6.411-1.886zM30.902 15.748l-13.829 8.297v-16.594l13.829 8.297z">
            </path>
        </symbol>
        <symbol id="icon-instagram" viewBox="0 0 32 32">
            <path
                d="M23.983 6.229c-0.354 0-0.701 0.105-0.996 0.302s-0.524 0.477-0.66 0.804c-0.136 0.327-0.171 0.688-0.102 1.035s0.24 0.667 0.491 0.918c0.251 0.251 0.57 0.421 0.917 0.49s0.708 0.034 1.035-0.102c0.328-0.136 0.607-0.365 0.804-0.66s0.302-0.641 0.302-0.996c0-0.475-0.189-0.931-0.525-1.267s-0.792-0.525-1.267-0.525zM30.852 9.843c-0.029-1.239-0.261-2.465-0.687-3.629-0.38-0.996-0.971-1.898-1.732-2.643-0.739-0.765-1.643-1.353-2.643-1.717-1.161-0.439-2.388-0.676-3.629-0.702-1.583-0.090-2.091-0.090-6.152-0.090s-4.57 0-6.152 0.090c-1.241 0.026-2.468 0.263-3.629 0.702-0.998 0.368-1.901 0.955-2.643 1.717-0.765 0.739-1.353 1.643-1.717 2.643-0.439 1.161-0.676 2.388-0.702 3.629-0.090 1.583-0.090 2.091-0.090 6.153s0 4.57 0.090 6.152c0.026 1.241 0.263 2.468 0.702 3.629 0.365 1 0.952 1.904 1.717 2.643 0.742 0.762 1.645 1.349 2.643 1.717 1.161 0.439 2.388 0.676 3.629 0.702 1.583 0.090 2.091 0.090 6.152 0.090s4.57 0 6.152-0.090c1.241-0.026 2.468-0.263 3.629-0.702 1-0.365 1.904-0.952 2.643-1.717 0.765-0.743 1.356-1.645 1.732-2.643 0.426-1.164 0.658-2.39 0.687-3.629 0-1.583 0.090-2.091 0.090-6.152s0-4.57-0.090-6.153zM28.164 21.969c-0.011 0.948-0.183 1.887-0.508 2.778-0.238 0.65-0.621 1.237-1.12 1.717-0.484 0.493-1.070 0.876-1.717 1.12-0.891 0.325-1.83 0.497-2.778 0.508-1.493 0.075-2.046 0.090-5.973 0.090s-4.48 0-5.973-0.090c-0.984 0.018-1.964-0.133-2.897-0.448-0.619-0.257-1.178-0.638-1.643-1.12-0.496-0.48-0.874-1.068-1.105-1.717-0.365-0.903-0.567-1.864-0.597-2.837 0-1.493-0.090-2.046-0.090-5.973s0-4.48 0.090-5.973c0.007-0.969 0.184-1.929 0.523-2.837 0.263-0.63 0.666-1.192 1.18-1.643 0.454-0.513 1.014-0.921 1.643-1.195 0.91-0.328 1.87-0.5 2.837-0.508 1.493 0 2.046-0.090 5.973-0.090s4.48 0 5.973 0.090c0.948 0.011 1.887 0.183 2.778 0.508 0.679 0.252 1.288 0.661 1.777 1.195 0.489 0.459 0.872 1.020 1.12 1.643 0.332 0.909 0.504 1.869 0.508 2.837 0.075 1.493 0.090 2.046 0.090 5.973s-0.015 4.48-0.090 5.973zM16.008 8.335c-1.514 0.003-2.994 0.455-4.252 1.298s-2.237 2.041-2.815 3.441c-0.578 1.4-0.727 2.94-0.43 4.425s1.028 2.849 2.1 3.919c1.072 1.070 2.437 1.798 3.923 2.092s3.025 0.142 4.424-0.439c1.399-0.58 2.595-1.562 3.436-2.822s1.29-2.74 1.29-4.255c0.002-1.008-0.195-2.006-0.58-2.937s-0.951-1.777-1.664-2.489c-0.713-0.712-1.56-1.276-2.492-1.659s-1.931-0.579-2.939-0.575zM16.008 20.969c-0.983 0-1.945-0.292-2.763-0.838s-1.455-1.323-1.832-2.232c-0.376-0.909-0.475-1.909-0.283-2.873s0.665-1.851 1.361-2.546c0.695-0.695 1.582-1.169 2.546-1.361s1.965-0.093 2.873 0.283 1.685 1.014 2.232 1.832c0.546 0.818 0.838 1.779 0.838 2.763 0 0.653-0.129 1.3-0.379 1.903s-0.616 1.152-1.078 1.613c-0.462 0.462-1.010 0.828-1.613 1.078s-1.25 0.379-1.903 0.379z">
            </path>
        </symbol>
        <symbol id="icon-facebook" viewBox="0 0 18 32">
            <path
                d="M14.45 5.602h2.924v-4.947c-1.416-0.147-2.839-0.22-4.262-0.218-4.231 0-7.124 2.582-7.124 7.311v4.076h-4.776v5.538h4.776v14.187h5.724v-14.187h4.76l0.716-5.538h-5.476v-3.531c0-1.633 0.436-2.691 2.738-2.691z">
            </path>
        </symbol>
        <symbol id="icon-close" viewBox="0 0 32 32">
            <path stroke-linejoin="round" stroke-linecap="round" stroke-miterlimit="4" stroke-width="1.6"
                d="M24 8l-16 16"></path>
            <path stroke-linejoin="round" stroke-linecap="round" stroke-miterlimit="4" stroke-width="1.6"
                d="M8 8l16 16"></path>
        </symbol>
        <symbol id="icon-star" viewBox="0 0 32 32">
            <path
                d="M2.904 22.997c7.367-2.278 15.426 0.186 20.26 6.194-2.278-7.367 0.186-15.426 6.194-20.26-7.367 2.278-15.427-0.186-20.261-6.194 2.278 7.367-0.186 15.426-6.194 20.26zM0.183 24.076c8.276-4.789 11.446-15.157 7.263-23.755l0.574-0.305c4.789 8.276 15.157 11.446 23.755 7.263l0.305 0.574c-8.276 4.789-11.446 15.157-7.263 23.755l-0.574 0.305c-4.789-8.276-15.157-11.446-23.755-7.263l-0.305-0.574z">
            </path>
            <path
                d="M23.873 26.019c0.443 1.571 0.671 2.862 0.684 3.798 0.007 0.469-0.042 0.812-0.121 1.045-0.078 0.229-0.165 0.3-0.211 0.324s-0.153 0.057-0.386-0.006c-0.237-0.065-0.549-0.217-0.934-0.485-0.769-0.534-1.711-1.445-2.766-2.691-2.103-2.483-4.562-6.186-6.867-10.52s-3.999-8.443-4.881-11.575c-0.443-1.571-0.671-2.862-0.684-3.798-0.007-0.469 0.042-0.812 0.121-1.045 0.078-0.229 0.165-0.299 0.211-0.324s0.153-0.058 0.386 0.006c0.237 0.065 0.549 0.217 0.934 0.484 0.769 0.534 1.711 1.445 2.766 2.691 2.103 2.483 4.562 6.186 6.867 10.52s3.999 8.443 4.881 11.575zM24.53 31.76c1.897-1.008-0.326-8.898-4.965-17.622s-9.936-14.978-11.833-13.97c-1.896 1.008 0.326 8.898 4.965 17.622s9.936 14.978 11.833 13.97z">
            </path>
            <path
                d="M6.077 23.705c-1.571 0.443-2.862 0.671-3.798 0.684-0.469 0.007-0.812-0.042-1.045-0.121-0.229-0.078-0.299-0.165-0.324-0.211s-0.058-0.153 0.006-0.386c0.065-0.237 0.217-0.549 0.484-0.934 0.534-0.769 1.445-1.711 2.691-2.766 2.483-2.103 6.186-4.562 10.52-6.867s8.443-3.999 11.575-4.881c1.571-0.443 2.862-0.671 3.798-0.684 0.469-0.007 0.812 0.042 1.045 0.121 0.229 0.078 0.3 0.165 0.324 0.211s0.057 0.153-0.006 0.386c-0.065 0.237-0.217 0.549-0.485 0.934-0.534 0.769-1.445 1.711-2.691 2.766-2.483 2.103-6.186 4.562-10.52 6.867s-8.443 3.999-11.575 4.881zM0.336 24.363c1.008 1.896 8.898-0.326 17.622-4.965s14.978-9.936 13.97-11.833-8.898 0.326-17.622 4.965c-8.724 4.639-14.978 9.936-13.97 11.833z">
            </path>
        </symbol>
        <symbol id="icon-arrow-left" viewBox="0 0 20 32">
            <path d="M7.16 16l12.532 12.445-3.58 3.555-16.112-16 16.112-16 3.58 3.555-12.532 12.445z"></path>
        </symbol>
        <symbol id="icon-arrow-down" viewBox="0 0 20 32">
            <path d="M7.16 16l12.532 12.445-3.58 3.555-16.112-16 16.112-16 3.58 3.555-12.532 12.445z"></path>
        </symbol>
        <symbol id="icon-arrow-rigt" viewBox="0 0 32 32">
            <path d="M17.455 16.667l-6.788 6.741 1.939 1.926 8.728-8.667-8.728-8.667-1.939 1.926 6.788 6.741z"></path>

        </symbol>
        <symbol id="icon-heart" viewBox="0 0 32 32">
            <path stroke-linejoin="round" stroke-linecap="round" stroke-miterlimit="4" stroke-width="2.6667"
                d="M27.787 6.146c-0.681-0.681-1.49-1.222-2.379-1.591s-1.844-0.559-2.807-0.559-1.917 0.19-2.807 0.559c-0.89 0.369-1.699 0.909-2.38 1.591l-1.413 1.413-1.413-1.413c-1.376-1.376-3.241-2.148-5.187-2.148s-3.811 0.773-5.187 2.148c-1.376 1.376-2.148 3.241-2.148 5.187s0.773 3.811 2.148 5.187l11.787 11.787 11.787-11.787c0.681-0.681 1.222-1.49 1.591-2.38s0.559-1.844 0.559-2.807-0.19-1.917-0.559-2.807c-0.369-0.89-0.909-1.699-1.591-2.38z">
            </path>
        </symbol>
        <symbol id="trash-icon" viewBox="0 0 32 32" fill="none">
            <path
                d="M14 5V4.2C14 3.0799 14 2.51984 13.782 2.09202C13.5903 1.71569 13.2843 1.40973 12.908 1.21799C12.4802 1 11.9201 1 10.8 1H9.2C8.07989 1 7.51984 1 7.09202 1.21799C6.71569 1.40973 6.40973 1.71569 6.21799 2.09202C6 2.51984 6 3.0799 6 4.2V5M8 10.5V15.5M12 10.5V15.5M1 5H19M17 5V16.2C17 17.8802 17 18.7202 16.673 19.362C16.3854 19.9265 15.9265 20.3854 15.362 20.673C14.7202 21 13.8802 21 12.2 21H7.8C6.11984 21 5.27976 21 4.63803 20.673C4.07354 20.3854 3.6146 19.9265 3.32698 19.362C3 18.7202 3 17.8802 3 16.2V5"
                stroke="#000" stroke-width="2" stroke-linecap="round" stroke-linejoin="round" />
        </symbol>
    </defs>
</svg>