<svg xmlns="http://www.w3.org/2000/svg" aria-hidden="true" style="position:absolute;width:0;height:0;overflow:hidden"><defs><symbol id="icon-burger_star" viewBox="0 0 32 32"><path d="M3.294 27.725c8.884-2.746 18.602.225 24.431 7.469-2.746-8.884.225-18.602 7.469-24.431-8.884 2.747-18.602-.225-24.431-7.469 2.746 8.884-.225 18.602-7.469 24.431zM.013 29.026C9.992 23.252 13.815 10.748 8.771.381l.692-.368c5.774 9.979 18.278 13.802 28.645 8.758l.368.692c-9.979 5.774-13.802 18.278-8.758 28.645l-.692.368C23.252 28.497 10.748 24.674.381 29.718l-.368-.692z"/><path d="M28.579 31.368c.534 1.895.809 3.452.825 4.58.008.565-.05.98-.146 1.26-.094.276-.199.361-.254.39s-.185.069-.466-.007c-.286-.078-.662-.261-1.126-.584-.927-.644-2.064-1.743-3.336-3.245-2.536-2.994-5.502-7.459-8.28-12.685S10.974 10.896 9.91 7.119c-.534-1.895-.809-3.452-.825-4.58-.008-.565.05-.98.146-1.26.094-.276.199-.361.254-.39s.185-.069.466.007c.286.078.662.261 1.126.584.927.644 2.063 1.743 3.336 3.245 2.536 2.994 5.502 7.459 8.28 12.685s4.822 10.181 5.886 13.958zm.792 6.923c2.287-1.216-.393-10.729-5.987-21.249S11.403-1.02 9.116.196s.394 10.729 5.987 21.249 11.982 18.062 14.268 16.846z"/><path d="M7.12 28.579c-1.895.534-3.452.809-4.58.825-.565.008-.98-.051-1.26-.146-.276-.094-.361-.2-.39-.254s-.069-.185.007-.466c.078-.286.261-.662.584-1.126.644-.927 1.743-2.063 3.245-3.336 2.994-2.536 7.459-5.502 12.685-8.28s10.181-4.822 13.958-5.886c1.895-.534 3.452-.809 4.58-.825.565-.008.98.05 1.26.146.276.094.361.199.39.254s.069.185-.007.466c-.078.286-.261.662-.584 1.126-.644.927-1.743 2.063-3.245 3.336-2.994 2.536-7.459 5.502-12.685 8.28S10.897 27.515 7.12 28.579zm-6.923.793c1.216 2.287 10.729-.394 21.249-5.987S39.508 11.404 38.292 9.117c-1.216-2.287-10.729.394-21.249 5.987S-1.019 27.085.197 29.372z"/></symbol></defs></svg>